<svg xmlns="http://www.w3.org/2000/svg" viewBox="0 0 485 436.1"><defs><style>.cls-1{fill:#eb3b9b;}</style></defs><title>Fichier 1</title><g id="Calque_2" data-name="Calque 2"><g id="Capa_1" data-name="Capa 1"><path class="cls-1" d="M483.8,21.8H181.6a1.22,1.22,0,0,0-1.2,1.2V51.3a1.22,1.22,0,0,0,1.2,1.2H483.8a1.22,1.22,0,0,0,1.2-1.2V23A1.16,1.16,0,0,0,483.8,21.8Z"/><circle class="cls-1" cx="71.5" cy="228.9" r="37.9"/><circle class="cls-1" cx="71.5" cy="395.1" r="38.1"/><path class="cls-1" d="M181.6,103.7H324.4a1.22,1.22,0,0,0,1.2-1.2V74.2a1.22,1.22,0,0,0-1.2-1.2H181.6a1.22,1.22,0,0,0-1.2,1.2v28.3A1.29,1.29,0,0,0,181.6,103.7Z"/><path class="cls-1" d="M483.8,188H181.6a1.22,1.22,0,0,0-1.2,1.2v28.3a1.22,1.22,0,0,0,1.2,1.2H483.8a1.22,1.22,0,0,0,1.2-1.2V189.2A1.16,1.16,0,0,0,483.8,188Z"/><path class="cls-1" d="M181.6,269.9H324.4a1.22,1.22,0,0,0,1.2-1.2V240.4a1.22,1.22,0,0,0-1.2-1.2H181.6a1.22,1.22,0,0,0-1.2,1.2v28.3A1.38,1.38,0,0,0,181.6,269.9Z"/><path class="cls-1" d="M483.8,354.1H181.6a1.22,1.22,0,0,0-1.2,1.2v28.3a1.22,1.22,0,0,0,1.2,1.2H483.8a1.22,1.22,0,0,0,1.2-1.2V355.3A1.16,1.16,0,0,0,483.8,354.1Z"/><path class="cls-1" d="M324.4,405.4H181.6a1.22,1.22,0,0,0-1.2,1.2v28.3a1.22,1.22,0,0,0,1.2,1.2H324.4a1.22,1.22,0,0,0,1.2-1.2V406.6A1.16,1.16,0,0,0,324.4,405.4Z"/><polygon class="cls-1" points="53.4 62.1 27.3 35.8 0 63 26.2 89.2 53.3 116.5 80.5 89.4 143 27.3 115.9 0 53.4 62.1"/></g></g></svg>