<svg xmlns="http://www.w3.org/2000/svg" viewBox="0 0 392 480"><defs><style>.cls-1{fill:#eb3b9b;}</style></defs><title>Fichier 1</title><g id="Calque_2" data-name="Calque 2"><g id="Capa_1" data-name="Capa 1"><path class="cls-1" d="M389.27,410,328,356.37V116a28,28,0,0,0-28-28c-.6,0-1.23.1-1.83.15A35.83,35.83,0,0,0,312,60V36A36,36,0,0,0,276,0a35.25,35.25,0,0,0-6.8.69c-1.16.22-2.25.62-3.37,1-1,.3-1.95.53-2.89.9a33.57,33.57,0,0,0-4,2c-.57.31-1.15.58-1.7.92a37.18,37.18,0,0,0-4,2.87c-.37.31-.75.6-1.11.92a36.4,36.4,0,0,0-3.56,3.68l-.8.95a36.46,36.46,0,0,0-2.94,4.35c-.19.33-.38.68-.55,1a34.3,34.3,0,0,0-2.19,4.92c-.12.34-.21.69-.33,1a36.31,36.31,0,0,0-1.3,5.45,2.27,2.27,0,0,1-.06.25v.2A37.32,37.32,0,0,0,240,36V60a35.89,35.89,0,0,0,17.6,30.76,40.13,40.13,0,0,0-22.14,21.78,22.17,22.17,0,0,0-10.4.25,23,23,0,0,0-27.84,16.52l-3,11a38.43,38.43,0,0,0-7.13-8.14l-15.61-13A35.78,35.78,0,0,0,184,92V68a35.82,35.82,0,0,0-13.6-28.06,36.61,36.61,0,0,0-4.4-3h0l-.07,0-.23-.11-.12-.07-.45-.25-.12-.06a38.15,38.15,0,0,0-4.2-2h-.14c-.46-.17-1-.33-1.54-.51l-.8-.23-.38-.11a29.34,29.34,0,0,0-3.2-.8h-.06a38.31,38.31,0,0,0-6.57-.81h-.17a32.18,32.18,0,0,0-8.23,1A7.78,7.78,0,0,0,136,32H124.66a56.13,56.13,0,0,0-54,41.26L32.28,213.9a8,8,0,0,0,5.61,9.82A8.37,8.37,0,0,0,40,224H93.82A221,221,0,0,0,44.49,329.5L29.93,413.18A98.63,98.63,0,0,1,2.34,466.34,8,8,0,0,0,8,480H184a8,8,0,0,0,8-8V246.49a42.52,42.52,0,0,0,30.58-30.13l6.14-23,3.28,8.2V452.69l-13.66,13.65A8,8,0,0,0,224,480h56a8,8,0,0,0,8-8V393.6l48,42V464a8,8,0,0,0,14.14,5.13l40-48A8,8,0,0,0,389.27,410ZM176.8,144.42a23,23,0,0,1,2.2,33.24l-12.24-26.92L156.42,128h.68ZM142,54.76l.8-6a18.4,18.4,0,0,1,6.56-.59,6.92,6.92,0,0,1,1,.11L148.35,50l-6.4,5.3Zm-5,37.18,1.8-13.18,25.92-21.6A19.55,19.55,0,0,1,168,68V92a20,20,0,0,1-20,20,19.76,19.76,0,0,1-13.07-5ZM50.47,208,86.07,77.47A40.08,40.08,0,0,1,124.66,48h2.17L105,208Zm84.58,0H121.16l3-21.83Zm-19.7,16h27.7l.22.44a45,45,0,0,0,2.9,4.92c.34.5.73.94,1.08,1.43.8,1,1.55,2.05,2.4,3,.47.52,1,1,1.47,1.51.8.8,1.6,1.6,2.5,2.4.55.46,1.13.91,1.71,1.36.88.68,1.79,1.34,2.72,1.95q.93.62,1.89,1.17c1,.56,1.95,1.08,3,1.6.66.32,1.32.64,2,.92,1.07.44,2.16.8,3.26,1.18.67.22,1.33.46,2,.64.88.24,1.79.41,2.69.59A511.46,511.46,0,0,1,62.8,320.23,205.14,205.14,0,0,1,115.35,224ZM176,464H25.35a114.43,114.43,0,0,0,14.13-26.19A276.25,276.25,0,0,0,176,332.23Zm0-162.16-3.92,6.72a260.26,260.26,0,0,1-127,110c.17-.89.46-1.75.61-2.65L59,339.71A527.07,527.07,0,0,0,176,265.35Zm31.13-89.61a26.61,26.61,0,0,1-23.78,19.58l-1.14.11a7.47,7.47,0,0,1-.8.08,26.48,26.48,0,0,1-23.81-14.72l-2.4-4.86L128,158l3.38-24.8.64-4.68a14.47,14.47,0,0,1,4-.54h2.85l37.87,83.31a8.28,8.28,0,0,0,1.33,2c.08.07.16.12.24.2a7.72,7.72,0,0,0,1.6,1.3,2.56,2.56,0,0,0,.24.11,8,8,0,0,0,1.93.8,1.46,1.46,0,0,1,.54.07,8.25,8.25,0,0,0,1.4.18h.64c.08,0,.21-.06.33-.08a2.52,2.52,0,0,0,.72-.07c.24-.07.38-.18.59-.24a8.93,8.93,0,0,0,1.4-.57,8.82,8.82,0,0,0,.93-.56,7.72,7.72,0,0,0,1.09-1,9,9,0,0,0,.71-.8,7.74,7.74,0,0,0,.72-1.29,6.28,6.28,0,0,0,.45-1c0-.11.11-.2.14-.3l17.72-65,2.25,5.65,7.09,17.69ZM263.18,20.8l.19-.15a19.24,19.24,0,0,1,3.34-2.23c.19-.11.38-.22.58-.32a19.72,19.72,0,0,1,3.44-1.28c.27-.08.53-.19.8-.26A19.2,19.2,0,0,1,276,16a20,20,0,0,1,20,20v.69L285.65,26.34A8,8,0,0,0,280,24H260.13A20.09,20.09,0,0,1,263.18,20.8ZM256,60V40h20.69L296,59.31V60a20,20,0,0,1-40,0Zm16,44h2.69c-.13.28-.18.59-.3.88a26.65,26.65,0,0,0-1.39,4c-.14.5-.27,1-.38,1.53A28.42,28.42,0,0,0,272,116v50.11l-20.63-41.25a20.52,20.52,0,0,0-2.27-3.57A24,24,0,0,1,272,104Zm-48.19,34a6.91,6.91,0,0,1,.07-5.48,7.45,7.45,0,0,1,4.16-3.94,6.45,6.45,0,0,1,7.2,1.32,7.16,7.16,0,0,1,1.82,2.13l35.78,71.55a7.74,7.74,0,0,0,1.48,2,5.49,5.49,0,0,0,.6.48,7.74,7.74,0,0,0,1.38,1,8,8,0,0,0,.8.34,7,7,0,0,0,1.55.43,6.35,6.35,0,0,0,.86.12c.17,0,.33.07.5.07a8.71,8.71,0,0,0,1.84-.2A8,8,0,0,0,288,200V116a11.88,11.88,0,0,1,8.54-11.39A11.65,11.65,0,0,1,300,104a12,12,0,0,1,12,12v85.83A30.16,30.16,0,0,1,253.83,213l-19.2-48ZM272,464H243.31l2.34-2.34A8,8,0,0,0,248,456V280h24Zm8-200H248V233.29c.63.68,1.32,1.3,2,1.94.32.31.62.63.95.93a45.72,45.72,0,0,0,4.65,3.67c.38.27.8.49,1.15.74A47.3,47.3,0,0,0,261,243c.45.23.9.47,1.37.69a45.37,45.37,0,0,0,5.6,2.18c.31.1.62.15.92.24a45.63,45.63,0,0,0,5.12,1.17l1.6.26a48.4,48.4,0,0,0,6.24.47,47,47,0,0,0,7.86-.72l.86-.13a45.42,45.42,0,0,0,7-2c.38-.14.76-.26,1.12-.41a45.89,45.89,0,0,0,6.31-3.06l1.06-.64a46.4,46.4,0,0,0,5.67-4.1c.08-.08.2-.13.29-.21V264Zm72,177.9V432a8,8,0,0,0-2.73-6L288,372.37V280h24v80a8,8,0,0,0,2.73,6l58.12,50.85Z"/></g></g></svg>