<svg xmlns="http://www.w3.org/2000/svg" viewBox="0 0 359.92 512"><defs><style>.cls-1{fill:#eb3b9b;}</style></defs><title>Fichier 1</title><g id="Calque_2" data-name="Calque 2"><g id="Capa_1" data-name="Capa 1"><path class="cls-1" d="M199.66,153.16l46-38.3h0l0,0a5.14,5.14,0,0,0,.42-.38l.09-.09c.17-.17.33-.35.49-.53l.05-.07c.13-.16.25-.32.37-.49l.12-.21a4.11,4.11,0,0,0,.24-.39c.05-.09.1-.19.14-.28l.17-.34c.05-.11.09-.22.13-.33l.12-.33c0-.11.07-.23.11-.34s.06-.23.08-.34.05-.23.07-.35a2.63,2.63,0,0,0,.06-.39c0-.1,0-.2,0-.3s0-.34,0-.51,0-.11,0-.17,0,0,0,0c0-.25,0-.49,0-.73,0,0,0-.06,0-.09,0-.21-.05-.41-.09-.62s-.05-.19-.07-.29-.06-.27-.1-.4-.08-.22-.11-.33l-.12-.33c0-.12-.1-.24-.16-.36l-.14-.29a3.72,3.72,0,0,0-.19-.34l-.09-.16L228.61,74.59A7.62,7.62,0,0,0,222.12,71H137.79a7.6,7.6,0,0,0-6.48,3.63L112.65,105l-.09.16a3.72,3.72,0,0,0-.19.34l-.14.29-.16.36-.12.33c0,.11-.07.22-.11.33s-.07.27-.1.4,0,.19-.07.29-.07.41-.09.62c0,0,0,.06,0,.09,0,.24,0,.48,0,.73,0,0,0,0,0,0s0,.11,0,.17,0,.34,0,.51,0,.2,0,.3a2.63,2.63,0,0,0,.06.39c0,.12,0,.23.07.35s0,.22.08.34.07.23.11.34l.12.33c0,.11.08.22.13.33l.16.34.15.28c.07.13.15.26.23.39a2.39,2.39,0,0,1,.13.21c.12.17.24.33.37.49l.05.07c.16.18.32.36.49.53l.09.09a5.14,5.14,0,0,0,.42.38l0,0h0l46,38.3C70.26,163,0,239.47,0,332c0,99.23,80.73,180,180,180s180-80.73,180-180C359.92,239.47,289.66,163,199.66,153.16Zm-12.1-9.71V116.59h32.23Zm26-57.27h4.34l9.33,15.21H198.32Zm-21.51,0L180,98.24,167.9,86.18Zm-50,0h4.34l15.21,15.21H132.72Zm-1.92,30.41h32.23v26.86ZM180,496.79C89.11,496.79,15.21,422.88,15.21,332S89.11,167.29,180,167.29,344.71,241.2,344.71,332,270.81,496.79,180,496.79Z"/><path class="cls-1" d="M317.75,273.83A150,150,0,0,0,304,248.43a149.88,149.88,0,0,0-65.8-54.18,150.06,150.06,0,0,0-116.42,0A150.29,150.29,0,0,0,96.35,208,150.1,150.1,0,0,0,56,248.43a150.67,150.67,0,0,0-13.78,25.4A149.82,149.82,0,0,0,54.78,413.88,149.2,149.2,0,0,0,180,481.58h0A149.38,149.38,0,0,0,293,430a7.61,7.61,0,0,0-.76-10.73,7.51,7.51,0,0,0-5-1.86A7.6,7.6,0,0,0,281.5,420h0a136.65,136.65,0,0,1-20.56,19.24,135.11,135.11,0,0,1-24.23,14.59,133.41,133.41,0,0,1-27.23,9.29A135.53,135.53,0,0,1,180,466.38a133.28,133.28,0,0,1-55.64-12l-.18-.08h0a134.44,134.44,0,1,1,173.77-57.84,7.6,7.6,0,0,0,13.34,7.3,148.57,148.57,0,0,0,13.51-34.08A150.27,150.27,0,0,0,329.5,332,148.58,148.58,0,0,0,317.75,273.83Z"/><path class="cls-1" d="M180,0a7.6,7.6,0,0,0-7.6,7.6V38a7.6,7.6,0,1,0,15.2,0V7.6A7.6,7.6,0,0,0,180,0Z"/><path class="cls-1" d="M125.71,50.52l-15.2-26.34a7.6,7.6,0,1,0-13.17,7.6l15.2,26.34a7.61,7.61,0,0,0,6.6,3.8,7.5,7.5,0,0,0,3.79-1A7.59,7.59,0,0,0,125.71,50.52Z"/><path class="cls-1" d="M259.8,21.39a7.6,7.6,0,0,0-10.38,2.78L234.21,50.51a7.61,7.61,0,0,0,13.17,7.61l15.21-26.34A7.61,7.61,0,0,0,259.8,21.39Z"/></g></g></svg>