<?xml version="1.0" encoding="utf-8"?>
<!-- Generator: Adobe Illustrator 22.0.0, SVG Export Plug-In . SVG Version: 6.00 Build 0)  -->
<svg version="1.1" id="Calque_1" xmlns="http://www.w3.org/2000/svg" xmlns:xlink="http://www.w3.org/1999/xlink" x="0px" y="0px"
	 viewBox="0 0 65 99.8" style="enable-background:new 0 0 65 99.8;" xml:space="preserve">
<style type="text/css">
	.st0{fill:#D6D6D6;}
</style>
<title>Fichier 1</title>
<g id="Calque_2_1_">
	<g id="Calque_1-2">
		<g id="Calque_2-2">
			<g id="Capa_1">
				<path class="st0" d="M51.1,26.7c0.4,0,0.8,0,1.2-0.1c2-0.3,3.8-1.4,5-3.1l7.3-10.1c0.5-0.7,0.3-1.6-0.3-2.1
					c-0.2-0.1-0.4-0.2-0.6-0.3c-2.2-0.3-4.3-0.5-6.5-0.5c-0.7-2.1-1.5-4.1-2.5-6c-0.4-0.7-1.3-1-2-0.6c0,0,0,0,0,0
					c-0.2,0.1-0.4,0.3-0.5,0.4l-7.3,10.1c-2.2,3-1.9,7,0.5,9.7c-1.1,1.3-3.1,3.7-5.2,6.7v-1.3c0-0.8-0.7-1.5-1.5-1.5
					c-0.8,0-1.5,0.7-1.5,1.5v5.6C36.1,37,35,38.9,34,40.9v-8.2l0,0v-2.5l4.2-4.2c0.6-0.6,0.6-1.5,0-2.1c-0.6-0.6-1.5-0.6-2.1,0
					L34,26v-4.5c3.6-0.7,6.2-3.9,6.2-7.5V1.5c0-0.8-0.7-1.5-1.5-1.5c-0.2,0-0.4,0.1-0.7,0.2c-1.9,1-3.8,2.2-5.6,3.4
					c-1.8-1.3-3.7-2.4-5.6-3.4c-0.7-0.4-1.6-0.1-2,0.6c0,0,0,0,0,0c-0.1,0.2-0.1,0.4-0.1,0.6V14c0,3.7,2.6,6.8,6.3,7.5v7.6l-3.8-3.8
					c-0.6-0.6-1.5-0.6-2.1,0c-0.6,0.6-0.6,1.5,0,2.1l5.8,5.8v7.6c-3.2-6-7-11.6-11.4-16.8c2.5-2.7,2.7-6.8,0.5-9.7L12.8,4.3
					c-0.5-0.6-1.4-0.8-2-0.3c-0.2,0.1-0.3,0.3-0.4,0.5c-1,1.9-1.8,3.9-2.5,6c-2.2,0-4.4,0.2-6.5,0.5c-0.8,0.1-1.4,0.8-1.3,1.6
					c0,0,0,0.1,0,0.1c0,0.2,0.1,0.4,0.3,0.6l7.4,10.1c2.2,3,6.2,4,9.6,2.4c0.5,0.5,1.1,1.3,1.8,2.2h-1.3c-0.8,0-1.5,0.7-1.5,1.5
					c0,0.8,0.7,1.5,1.5,1.5h3.5c2.4,3.2,4.7,6.7,6.6,10.2c-2.4-2.4-5.1-4.4-7.9-6.2c-5.2-3.4-10.9-5.7-17-6.9
					c-0.8-0.1-1.5,0.4-1.7,1.2c0,0.1,0,0.1,0,0.2c0.2,4.6,1.2,9.2,2.8,13.6c3.8,10.3,10.4,19.4,19,26.2v5.4L17,97.9
					c-0.2,0.8,0.2,1.6,1,1.8c0.1,0,0.2,0,0.4,0h28.2c0.8,0,1.4-0.6,1.5-1.4c0-0.1,0-0.3,0-0.4l-6.2-23.2v-5.4
					c8.6-6.8,15.2-15.9,19-26.2c1.7-4.3,2.6-8.9,2.8-13.6c0-0.8-0.7-1.5-1.5-1.5H62c-3.8,0.7-7.4,1.9-10.9,3.5
					c-5.2,2.4-9.9,5.6-14,9.6c2-3.6,4.2-7,6.6-10.3h3.5c0.8,0,1.5-0.7,1.5-1.5c0-0.8-0.7-1.5-1.5-1.5c0,0,0,0,0,0H46
					c0.7-0.9,1.4-1.7,1.8-2.2C48.8,26.4,50,26.6,51.1,26.7z M60.9,13.7l-2.2,3c-0.1-1.1-0.3-2.2-0.6-3.2
					C59.1,13.5,60.1,13.6,60.9,13.7z M6.3,16.7l-2.2-3c0.8-0.1,1.8-0.1,2.8-0.2C6.6,14.6,6.4,15.6,6.3,16.7L6.3,16.7z M16.7,22.8
					c-2.1,1.6-5.1,1.1-6.7-1l0,0c-2.1-2.9,0.1-9.7,1.9-13.7l5.9,8.1C19.3,18.3,18.8,21.3,16.7,22.8C16.7,22.8,16.7,22.8,16.7,22.8
					L16.7,22.8z M37.3,3.9v3.8c-0.7-0.8-1.5-1.6-2.4-2.3C35.8,4.9,36.6,4.3,37.3,3.9z M27.7,14V4c3.8,2.2,9.6,6.4,9.6,10
					c-0.1,2.6-2.4,4.7-5,4.6C29.8,18.5,27.8,16.5,27.7,14z M7,42.3c-1.3-3.5-2.2-7.2-2.6-10.9c5,1.2,9.7,3.3,14,6
					c4.8,3,8.9,6.9,12.2,11.5c3.9,5.5,6.6,11.7,7.9,18.3h-3.4c-1.7-7.8-5.4-15-10.9-20.8c-0.5-0.6-1.4-0.7-2-0.2
					c-0.6,0.5-0.7,1.4-0.2,2c0.1,0.1,0.1,0.1,0.2,0.2l0,0c5,5.2,8.4,11.7,10,18.7h-6.9C17,60.7,10.7,52.1,7,42.3z M38.9,70.1v3.3
					H26.1v-3.3H38.9z M44.7,96.8h-6.2L38.2,95c-0.1-0.8-0.8-1.4-1.6-1.3c-0.8,0.1-1.4,0.8-1.3,1.6l0,0l0,0l0.2,1.5H20.3l5.5-20.5h7
					l1.7,12.8c0.1,0.7,0.7,1.3,1.5,1.3h0.2c0.8-0.1,1.4-0.8,1.3-1.7l-1.7-12.4h3.5L44.7,96.8z M52.2,34.4c2.7-1.3,5.5-2.3,8.4-3
					c-0.4,3.7-1.3,7.4-2.6,10.9c-3.4,9.2-9.2,17.4-16.7,23.7c-1.3-6-3.7-11.8-7-16.9C38.9,42.7,45.1,37.6,52.2,34.4z M47.2,16.1
					L53.1,8c1.7,4,4,10.9,1.9,13.7c-1.6,2.1-4.6,2.6-6.7,1C46.2,21.2,45.8,18.2,47.2,16.1L47.2,16.1z"/>
				<path class="st0" d="M19.3,42.1c-1-0.8-2.1-1.5-3.2-2.2c-0.7-0.4-1.6-0.2-2,0.5s-0.2,1.6,0.5,2l0,0c1,0.6,2,1.3,3,2.1
					c0.6,0.5,1.6,0.4,2-0.3C20,43.5,19.9,42.6,19.3,42.1L19.3,42.1z"/>
			</g>
		</g>
	</g>
</g>
</svg>
