<?xml version="1.0" encoding="utf-8"?>
<!-- Generator: Adobe Illustrator 22.0.0, SVG Export Plug-In . SVG Version: 6.00 Build 0)  -->
<svg version="1.1" id="Calque_1" xmlns="http://www.w3.org/2000/svg" xmlns:xlink="http://www.w3.org/1999/xlink" x="0px" y="0px"
	 viewBox="0 0 99.4 78.9" style="enable-background:new 0 0 99.4 78.9;" xml:space="preserve">
<style type="text/css">
	.st0{fill:#D6D6D6;}
</style>
<title>Fichier 2</title>
<g id="Calque_2_1_">
	<g id="Calque_1-2">
		<g id="Calque_2-2">
			<g id="Capa_1">
				<path class="st0" d="M91.7,10.2h-9.4l-5.7-9.5l0,0V0.7V0.6V0.6V0.5h-0.1l-0.3-0.1h-0.1h-0.1h-0.1h-0.1L76,0.2h-0.1h-0.1h-0.1
					h-0.1h-0.1h-0.1h-31h-0.1h-0.2h-0.1h-0.1h-0.1l0,0H44h-0.1h-0.1h-0.1h-0.1h-0.1l0,0h-0.1c0,0,0,0,0,0h0v0.1v0.1l-0.1,0.1l0,0
					l-5.7,9.5h-14V5.6c0-0.9-0.7-1.5-1.5-1.6c-0.1,0-0.2,0-0.3,0H9.7c-0.8,0-1.5,0.7-1.5,1.5c0,0,0,0,0,0l0,0v4.6H7.7
					c-4.2,0-7.7,3.4-7.7,7.7v53.3c0,4.2,3.4,7.7,7.7,7.7h84c4.2,0,7.7-3.4,7.7-7.7V17.9C99.4,13.7,95.9,10.2,91.7,10.2z M11.3,7.2
					h9.2v3.1h-9.2V7.2z M91.7,75.8H23.6V17.9c0.1-0.8-0.5-1.6-1.4-1.7c-0.8-0.1-1.6,0.5-1.7,1.4c0,0.1,0,0.1,0,0.2v58H7.7
					c-2.5,0-4.6-2.1-4.6-4.6l0,0V60.3h4.6c0.8,0,1.5-0.7,1.5-1.6c0-0.8-0.6-1.4-1.4-1.5H3.1v-5.1h4.6c0.8,0,1.5-0.7,1.5-1.6
					c0-0.8-0.6-1.4-1.4-1.5H3.1V44h4.6c0.8,0.1,1.6-0.6,1.7-1.4C9.4,41.8,8.8,41,7.9,41c-0.1,0-0.2,0-0.2,0H3.1v-5.1h4.6
					c0.8,0.1,1.6-0.5,1.7-1.4S8.9,32.9,8,32.8c-0.1,0-0.1,0-0.2,0H3.1V17.9c0-2.5,2.1-4.6,4.6-4.6h31h0.1l0,0H39l0,0l0.2-0.1l0,0
					l0.1-0.1l0,0l0.1-0.1l0,0l0.1-0.1l0,0c0-0.1,0.1-0.1,0.1-0.1l0,0l5.7-9.5h29l5.7,9.5l0,0l0.1,0.1l0,0l0.1,0.1l0,0l0.1,0.1l0,0
					l0.1,0.1l0,0l0.2,0.1l0,0h0.1l0,0h0.1h10.9c2.5,0,4.6,2,4.6,4.6c0,0,0,0,0,0v53.3l0,0C96.3,73.7,94.2,75.8,91.7,75.8
					C91.7,75.8,91.7,75.8,91.7,75.8z"/>
				<path class="st0" d="M59.9,24.6c-11.6,0-21,9.4-21,21s9.4,21,21,21s21-9.4,21-21S71.5,24.6,59.9,24.6
					C59.9,24.6,59.9,24.6,59.9,24.6z M59.9,63.5c-9.9,0-17.9-8-17.9-17.9s8-17.9,17.9-17.9s17.9,8,17.9,17.9l0,0l0,0
					C77.8,55.5,69.8,63.5,59.9,63.5z"/>
				<path class="st0" d="M68.7,38.4c-2.3-2.3-6-2.7-8.7-0.9c-3.2-2.1-7.5-1.2-9.6,2c-1.8,2.7-1.4,6.4,0.9,8.7l7.7,7.6
					c0.6,0.6,1.6,0.6,2.2,0c0,0,0,0,0,0l7.6-7.6C71.3,45.5,71.3,41.2,68.7,38.4z M66.5,46.1l-6.5,6.5l-6.5-6.5c-1.5-1.5-1.5-4,0-5.5
					s4-1.5,5.5,0c0.6,0.6,1.6,0.6,2.2,0c1.4-1.6,3.9-1.7,5.5-0.3c1.6,1.4,1.7,3.9,0.3,5.5C66.7,45.9,66.6,45.9,66.5,46.1L66.5,46.1
					L66.5,46.1z"/>
				<path class="st0" d="M74.7,11.2L73,7.1l0,0V7l0,0V6.9V6.9l0,0l-0.1-0.1l0,0l-0.2-0.2l0,0l-0.1-0.1l-0.1-0.1l0,0l-0.3-0.1l0,0
					h-0.1l0,0c0,0,0,0-0.1,0H47.9h-0.1h-0.1l0,0h-0.1l0,0l-0.1,0.1l0,0h-0.1l-0.1,0.1l0,0c-0.1,0.1-0.1,0.1-0.2,0.2l0,0L47,6.8l0,0
					c0,0,0,0,0,0.1v0.1l0,0C47,7,47,7,47,7l0,0l-1.6,4.1c-0.3,0.8,0.1,1.7,0.8,2c0,0,0,0,0,0l0,0c0.2,0.1,0.4,0.1,0.6,0.1
					c0.6,0,1.2-0.4,1.4-1l1.2-3.1h21.1l1.3,3.1c0.2,0.6,0.8,1,1.4,1c0.2,0,0.4,0,0.6-0.1C74.6,12.8,75,11.9,74.7,11.2
					C74.7,11.2,74.7,11.1,74.7,11.2L74.7,11.2z"/>
				<path class="st0" d="M88.6,16.4c-2.5,0-4.6,2.1-4.6,4.6s2.1,4.6,4.6,4.6s4.6-2.1,4.6-4.6C93.2,18.5,91.2,16.4,88.6,16.4
					C88.6,16.4,88.6,16.4,88.6,16.4z M88.6,22.5c-0.9,0-1.5-0.7-1.5-1.5s0.7-1.5,1.5-1.5s1.5,0.7,1.5,1.5l0,0
					C90.2,21.9,89.5,22.5,88.6,22.5C88.6,22.5,88.6,22.5,88.6,22.5z"/>
				<path class="st0" d="M86.2,39c-3.7-14.5-18.4-23.4-32.9-19.7S29.9,37.7,33.6,52.2C37.2,66.8,52,75.6,66.5,71.9
					c9.7-2.4,17.3-10,19.7-19.7c3.7-0.4,6.3-3.6,5.9-7.3C91.9,41.8,89.4,39.3,86.2,39z M59.9,69.7c-13.3,0-24.1-10.8-24.1-24.1
					c0-13.3,10.8-24.1,24.1-24.1c11.4,0,21.2,8,23.6,19.1l0,0c0,0.1,0,0.2,0.1,0.3c2.5,13-6,25.7-19,28.2
					C63,69.5,61.5,69.7,59.9,69.7L59.9,69.7z M86.9,48.9c0.1-1.1,0.2-2.2,0.2-3.3c0-1.1-0.1-2.2-0.2-3.3c1.8,0.7,2.7,2.8,2,4.7
					C88.5,47.8,87.8,48.5,86.9,48.9L86.9,48.9z"/>
				<path class="st0" d="M34.3,20.5h-6.1c-0.8-0.1-1.6,0.5-1.7,1.4c-0.1,0.8,0.5,1.6,1.4,1.7c0.1,0,0.1,0,0.2,0h6.3
					c0.8-0.1,1.5-0.8,1.4-1.7C35.7,21.1,35.1,20.6,34.3,20.5z"/>
			</g>
		</g>
	</g>
</g>
</svg>
