<?xml version="1.0" encoding="utf-8"?>
<!-- Generator: Adobe Illustrator 22.0.0, SVG Export Plug-In . SVG Version: 6.00 Build 0)  -->
<svg version="1.1" id="Calque_1" xmlns="http://www.w3.org/2000/svg" xmlns:xlink="http://www.w3.org/1999/xlink" x="0px" y="0px"
	 viewBox="0 0 70.3 100" style="enable-background:new 0 0 70.3 100;" xml:space="preserve">
<style type="text/css">
	.st0{fill:#D6D6D6;}
</style>
<title>Fichier 4</title>
<g id="Calque_2_1_">
	<g id="Calque_1-2">
		<g id="Calque_2-2">
			<g id="Capa_1">
				<path class="st0" d="M39,29.9l9-7.5l0,0c0,0,0.1,0,0.1-0.1l0,0l0.1-0.1l0,0l0.1-0.1l0,0v-0.1v0V22c0,0,0,0,0-0.1v-0.1
					c0,0,0,0,0-0.1c0,0,0,0,0-0.1c0,0,0,0,0-0.1s0,0,0-0.1v-0.2l0,0v-0.2c0,0,0-0.1,0-0.1V21c0,0,0-0.1,0-0.1c0,0,0,0,0-0.1v-0.1
					c0,0,0,0,0-0.1v-0.1c0,0,0,0,0-0.1l0,0l-3.6-5.9c-0.3-0.4-0.8-0.7-1.3-0.7H26.9c-0.5,0-1,0.3-1.3,0.7L22,20.5l0,0v0.1v0v0.1v0.1
					c0,0,0,0,0,0.1c0,0,0,0.1,0,0.1c0,0,0,0,0,0.1c0,0,0,0.1,0,0.1l0,0v0.1l0,0v0.2c0,0,0,0,0,0.1c0,0,0,0,0,0.1c0,0,0,0,0,0.1
					s0,0,0,0.1v0.1c0,0,0,0,0,0.1v0.1V22l0,0.1l0,0c0,0,0,0.1,0.1,0.1l0,0l0.1,0.1l0,0l0.1,0.1l0,0l9,7.5C12,32-2,49.4,0.1,68.7
					S19.7,102,39,99.8S72.3,80.3,70.1,61C68.3,44.6,55.4,31.6,39,29.9L39,29.9z M36.6,28v-5.2h6.3L36.6,28z M41.7,16.8h0.8l1.8,3
					h-5.6L41.7,16.8z M37.5,16.8l-2.3,2.4l-2.4-2.4H37.5z M27.7,16.8h0.9l3,3h-5.7L27.7,16.8z M27.4,22.8h6.3V28L27.4,22.8z
					 M35.2,97C17.4,97,3,82.6,3,64.8s14.4-32.2,32.2-32.2S67.3,47,67.3,64.8c0,0,0,0,0,0C67.3,82.6,52.9,97,35.2,97z"/>
				<path class="st0" d="M62.1,53.5c-6.3-14.9-23.4-21.8-38.3-15.5c-1.8,0.7-3.4,1.6-5,2.7c-13.4,9-16.9,27.2-7.9,40.5
					c5.4,8.1,14.5,12.9,24.3,12.9l0,0c8.5,0,16.5-3.7,22.1-10.1c0.5-0.6,0.5-1.6-0.2-2.1c-0.3-0.2-0.6-0.4-1-0.4
					c-0.4,0-0.8,0.2-1.1,0.4l0,0c-1.2,1.4-2.5,2.6-4,3.8c-7.7,5.8-17.9,7-26.7,3l0,0l0,0C11.1,82.8,5.2,67.3,11.2,54
					s21.5-19.1,34.7-13.2S65,62.4,59.1,75.6c0,0,0,0.1-0.1,0.1c-0.3,0.6-0.5,1.1-0.8,1.7c-0.4,0.7-0.2,1.6,0.5,2.1
					c0.7,0.4,1.6,0.2,2.1-0.5c0,0,0.1-0.1,0.1-0.1l0,0c1.2-2.1,2-4.3,2.6-6.7c0.6-2.4,0.9-4.9,0.9-7.4
					C64.3,60.9,63.6,57.1,62.1,53.5z"/>
				<path class="st0" d="M35.2,0c-0.8,0-1.5,0.7-1.5,1.5l0,0v5.9c0,0.8,0.7,1.5,1.5,1.5s1.5-0.7,1.5-1.5l0,0V1.5
					C36.7,0.7,36,0,35.2,0C35.2,0,35.2,0,35.2,0z"/>
				<path class="st0" d="M24.5,9.9l-3-5.2C21,4.1,20.1,4,19.5,4.5c-0.5,0.4-0.7,1.1-0.5,1.7l0,0l3,5.1c0.3,0.5,0.8,0.7,1.3,0.7
					c0.2,0,0.5-0.1,0.7-0.2C24.7,11.5,24.9,10.6,24.5,9.9L24.5,9.9z"/>
				<path class="st0" d="M50.7,4.2c-0.7-0.4-1.6-0.1-2,0.5l-3,5.2c-0.4,0.7-0.1,1.6,0.7,2c0.7,0.3,1.5,0.1,1.9-0.5l3-5.1
					C51.7,5.5,51.5,4.6,50.7,4.2C50.7,4.2,50.7,4.2,50.7,4.2z"/>
			</g>
		</g>
	</g>
</g>
</svg>
