<?xml version="1.0" encoding="utf-8"?>
<!-- Generator: Adobe Illustrator 22.0.0, SVG Export Plug-In . SVG Version: 6.00 Build 0)  -->
<svg version="1.1" id="Calque_1" xmlns="http://www.w3.org/2000/svg" xmlns:xlink="http://www.w3.org/1999/xlink" x="0px" y="0px"
	 viewBox="0 0 98.8 91.2" style="enable-background:new 0 0 98.8 91.2;" xml:space="preserve">
<style type="text/css">
	.st0{fill:#D6D6D6;}
</style>
<title>Fichier 3</title>
<g id="Calque_2_1_">
	<g id="Calque_1-2">
		<g id="Calque_2-2">
			<g id="Capa_1">
				<path class="st0" d="M98.6,3.2H33.7c-0.1,0-0.2,0.1-0.2,0.2v5.8c0,0.1,0.1,0.2,0.2,0.2h64.9c0.1,0,0.2-0.1,0.2-0.2V3.5
					C98.8,3.4,98.7,3.2,98.6,3.2C98.6,3.2,98.6,3.2,98.6,3.2L98.6,3.2z"/>
				<path class="st0" d="M33.7,20H66c0.1,0,0.2-0.1,0.2-0.2V14c0-0.1-0.1-0.3-0.2-0.3c0,0,0,0-0.1,0H33.7c-0.1,0-0.2,0.1-0.2,0.2
					v5.8C33.4,19.9,33.5,20,33.7,20C33.6,20,33.6,20,33.7,20L33.7,20z"/>
				<path class="st0" d="M98.6,37.2H33.7c-0.1,0-0.2,0.1-0.2,0.2v5.8c0,0.1,0.1,0.2,0.2,0.2h64.9c0.1,0,0.2-0.1,0.2-0.2v-5.8
					C98.8,37.3,98.7,37.2,98.6,37.2C98.6,37.2,98.6,37.2,98.6,37.2L98.6,37.2z"/>
				<path class="st0" d="M33.7,54H66c0.1,0,0.2-0.1,0.2-0.2v-5.8c0-0.1-0.1-0.2-0.2-0.2H33.7c-0.1,0-0.2,0.1-0.2,0.2v5.8
					C33.4,53.8,33.5,53.9,33.7,54C33.6,53.9,33.6,54,33.7,54L33.7,54z"/>
				<path class="st0" d="M98.6,71.2H33.7c-0.1,0-0.2,0.1-0.2,0.2v5.8c0,0.1,0.1,0.2,0.2,0.2h64.9c0.1,0,0.2-0.1,0.2-0.2v-5.8
					C98.8,71.3,98.7,71.2,98.6,71.2C98.6,71.2,98.6,71.2,98.6,71.2L98.6,71.2z"/>
				<path class="st0" d="M66,81.7H33.7c-0.1,0-0.2,0.1-0.2,0.2v5.8c0,0.1,0.1,0.2,0.2,0.2H66c0.1,0,0.2-0.1,0.2-0.2v-5.8
					C66.2,81.8,66.1,81.7,66,81.7z"/>
				<polygon class="st0" points="10.6,12.4 5.4,7.1 0,12.6 5.2,17.8 10.6,23.2 16.1,17.8 28.5,5.4 23.1,0 				"/>
				<polygon class="st0" points="10.6,46.4 5.4,41.1 0,46.5 5.2,51.8 10.6,57.2 16.1,51.8 28.5,39.4 23.1,34 				"/>
				<polygon class="st0" points="10.6,80.3 5.4,75.1 0,80.5 5.2,85.7 10.6,91.2 16.1,85.8 28.5,73.4 23.1,67.9 				"/>
			</g>
		</g>
	</g>
</g>
</svg>
