<?xml version="1.0" encoding="utf-8"?>
<!-- Generator: Adobe Illustrator 22.0.0, SVG Export Plug-In . SVG Version: 6.00 Build 0)  -->
<svg version="1.1" id="Calque_1" xmlns="http://www.w3.org/2000/svg" xmlns:xlink="http://www.w3.org/1999/xlink" x="0px" y="0px"
	 viewBox="0 0 174.8 90" style="enable-background:new 0 0 174.8 90;" xml:space="preserve">
<style type="text/css">
	.st0{fill:#FFFFFF;}
	.st1{fill:#EB3B9B;}
</style>
<title>Fichier 1</title>
<g id="Calque_2_1_">
	<path class="st0" d="M118.7,63.5L118.7,63.5l0.6,0.5c0.3,0.2,0.6,0.5,1,0.9l1.3,1.2l1.5,1.3l1.6,1.4l2,1.7l2,1.7l1.9,1.5l1.4,1.2
		c0.1,0.1,0.3,0.2,0.4,0.3c0.1,0.1,0.3,0.1,0.4,0.1c0.1,0,0.2-0.1,0.2-0.2c0.1-0.2,0.1-0.3,0.1-0.5l0.3-13.1c0-0.3,0-0.6,0.1-0.9
		c0.1-0.4,0.4-0.8,0.8-0.8l0.4-0.1h0.4c0.3,0,0.4-0.1,0.4-0.2c0-0.1-0.1-0.1-0.2-0.2c-0.1,0-0.3,0-0.4,0h-1.1h-0.9
		c-0.2,0-0.4,0-0.5,0s-0.4,0-0.7,0h-1.1h-1.2c-0.2,0-0.3,0-0.5,0c-0.1,0-0.2,0.1-0.2,0.2c0,0.1,0,0.1,0.1,0.1s0.2,0,0.3,0h0.4
		c0.2,0,0.3,0,0.5,0c0.1,0,0.3,0,0.4,0.1c0.2,0.1,0.3,0.2,0.5,0.3c0.1,0.2,0.2,0.4,0.3,0.6c0.1,0.3,0.1,0.7,0.1,1l0.2,9.3h-0.1
		l-0.6-0.5l-1.1-0.9l-1.3-1.2l-1.4-1.2l-1.2-1c-0.7-0.6-1.5-1.2-2.2-1.8l-2-1.8c-0.6-0.6-1.2-1-1.7-1.5l-1.2-1.1l-0.6-0.5
		c-0.2-0.2-0.4-0.3-0.5-0.5c-0.1-0.1-0.3-0.2-0.4-0.2s-0.2,0.1-0.3,0.2c-0.1,0.2-0.1,0.3-0.1,0.5l0.1,12.6c0,0.6,0,1.1-0.1,1.4
		c0,0.3-0.1,0.6-0.2,0.8c-0.1,0.2-0.3,0.3-0.5,0.3s-0.4,0.1-0.6,0.1H115c-0.1,0-0.2,0-0.3,0c-0.1,0-0.1,0.1-0.1,0.1
		c0,0.1,0.1,0.2,0.2,0.2s0.3,0,0.4,0h1.2h1h0.5h1.1c0.5,0,1.2,0,2,0c0.1,0,0.3,0,0.4,0s0.2-0.1,0.2-0.2s0-0.1-0.1-0.1s-0.2,0-0.3,0
		h-0.7c-0.2,0-0.4-0.1-0.7-0.1c-0.2,0-0.3-0.2-0.4-0.3c-0.1-0.2-0.2-0.5-0.3-0.7c-0.1-0.4-0.1-0.8-0.1-1.3L118.7,63.5z"/>
	<path class="st0" d="M100.2,69c0,0.7,0,1.3,0,1.9s0,1.1,0,1.5s-0.1,0.8-0.1,1.1c0,0.2-0.1,0.5-0.2,0.7s-0.3,0.3-0.5,0.3H99
		c-0.2,0-0.3,0-0.5,0c-0.1,0-0.2,0-0.3,0c-0.1,0-0.1,0.1-0.1,0.1c0,0.1,0,0.1,0.1,0.2c0.1,0,0.2,0,0.4,0h0.8h0.9h0.8h0.6h1L104,75
		h1.6c0.1,0,0.2,0,0.3,0c0.1,0,0.1-0.1,0.1-0.2s0-0.1-0.1-0.1s-0.2,0-0.3,0h-0.4h-0.4h-0.4c-0.2,0-0.4-0.1-0.6-0.2
		c-0.1-0.1-0.2-0.2-0.3-0.3c-0.1-0.2-0.1-0.3-0.1-0.5c0-0.3-0.1-0.7-0.1-1.1s0-1,0-1.6s0-1.2,0-1.9v-5.4c0-0.4,0-0.8,0-1.1
		s0-0.5,0-0.8s0-0.4,0-0.5s0-0.3,0-0.4c0-0.3,0.1-0.6,0.2-0.8c0.2-0.2,0.4-0.3,0.7-0.3h0.4h0.4c0.1,0,0.2,0,0.3,0
		c0.1,0,0.1-0.1,0.1-0.2c0-0.1,0-0.1-0.1-0.1s-0.3,0-0.4,0h-0.8h-0.9h-0.8h-1.3h-0.9h-0.9h-0.8c-0.1,0-0.3,0-0.4,0s-0.2,0.1-0.2,0.1
		c0,0.1,0,0.1,0.1,0.2c0.1,0,0.2,0,0.3,0h0.5c0.1,0,0.3,0,0.4,0.1c0.2,0,0.5,0.2,0.6,0.3c0.2,0.2,0.2,0.5,0.2,0.8c0,0.1,0,0.3,0,0.4
		s0,0.3,0,0.5v0.8c0,0.3,0,0.7,0,1.1L100.2,69L100.2,69z"/>
	<path class="st0" d="M87.2,71.4V70c0-0.4,0-0.8,0-1.1c0-0.3,0.1-0.6,0.2-0.8c0.2-0.2,0.4-0.3,0.7-0.4h0.4h0.3c0.1,0,0.2,0,0.2,0
		c0.1,0,0.1-0.1,0.1-0.1c0-0.1,0-0.2-0.1-0.2s-0.2,0-0.4,0h-0.9h-1.1h-0.9h-1h-1.3H82c-0.1,0-0.3,0-0.4,0s-0.1,0.1-0.1,0.2
		s0,0.1,0.1,0.1s0.2,0,0.3,0h0.6h0.4c0.2,0,0.4,0.1,0.6,0.2c0.1,0.1,0.3,0.2,0.3,0.4c0.1,0.2,0.1,0.4,0.1,0.6c0,0.3,0,0.7,0,1.1v3.3
		c0,0.2,0,0.3-0.1,0.5c-0.1,0.1-0.2,0.3-0.4,0.3c-0.2,0.1-0.4,0.1-0.7,0.2c-0.2,0-0.5,0.1-0.8,0.1h-0.7c-1,0-2-0.1-3-0.4
		c-0.8-0.3-1.6-0.6-2.3-1.1c-0.7-0.5-1.3-1-1.8-1.7c-0.5-0.6-0.9-1.4-1.2-2.1c-0.3-0.8-0.4-1.7-0.4-2.5s0.1-1.5,0.3-2.2
		c0.2-0.6,0.4-1.2,0.8-1.7c0.3-0.5,0.8-0.9,1.2-1.2c0.4-0.3,0.9-0.5,1.3-0.7s0.9-0.3,1.3-0.4c0.4-0.1,0.8-0.1,1.2-0.2
		c0.4,0,0.8,0,1.1,0c0.7,0,1.3,0,2,0.2c0.6,0.1,1.1,0.2,1.6,0.4c0.4,0.1,0.8,0.3,1.2,0.5c0.3,0.1,0.6,0.3,0.8,0.5
		c0.2,0.2,0.4,0.4,0.5,0.6c0.1,0.2,0.2,0.4,0.2,0.6c0,0.2,0.1,0.4,0.1,0.5s0,0.1,0.1,0.2c0,0.1,0.1,0.1,0.2,0.1s0.2,0,0.2-0.1
		c0.1-0.1,0.1-0.2,0.1-0.3c0-0.7,0-1.2,0-1.6s0-0.8,0-1s0-0.4,0.1-0.5s0-0.2,0-0.3s0-0.1-0.1-0.2c-0.1-0.1-0.2-0.1-0.3-0.1
		c-0.2,0-0.4,0-0.7,0s-0.5,0-0.7-0.1l-0.6-0.1L84,59.3l-1-0.2c-0.4,0-0.9-0.1-1.3-0.1s-0.9,0-1.3,0c-0.7,0-1.4,0-2.2,0.1
		c-0.8,0.1-1.5,0.2-2.3,0.4s-1.6,0.5-2.3,0.9c-0.6,0.3-1.1,0.7-1.7,1.1c-0.5,0.4-1,0.9-1.4,1.5s-0.8,1.2-1,1.9
		c-0.2,0.7-0.4,1.5-0.4,2.3c0,1,0.2,2.1,0.6,3s1,1.7,1.7,2.3c0.8,0.7,1.6,1.2,2.5,1.6c1,0.4,2.1,0.7,3.2,0.9
		c1.2,0.2,2.4,0.3,3.6,0.3c0.5,0,1,0,1.5,0s1.1-0.1,1.6-0.2s1-0.2,1.5-0.3c0.5-0.1,0.9-0.3,1.4-0.4c0.1,0,0.2-0.1,0.2-0.1
		c0.1-0.1,0.1-0.1,0.1-0.2s0-0.3,0-0.4L87.2,71.4z"/>
	<path class="st0" d="M47,69v1.8c0,0.6,0,1.1,0,1.5s0,0.7-0.1,1.1c0,0.2-0.1,0.4-0.1,0.6c0,0.1-0.1,0.3-0.2,0.4
		c-0.1,0.1-0.2,0.2-0.4,0.2h-0.4c-0.2,0-0.3,0-0.5,0c-0.1,0-0.2,0-0.3,0s-0.1,0.1-0.1,0.1c0,0.1,0,0.1,0.1,0.2c0.1,0,0.2,0,0.4,0
		h0.8h0.9H48h1h0.9L51,75h1.1c0.1,0,0.2,0,0.4,0c0.1,0,0.1-0.1,0.1-0.2s0-0.1-0.1-0.1s-0.2,0-0.2,0H52h-0.4h-0.4
		c-0.2,0-0.4-0.1-0.6-0.2c-0.1-0.1-0.2-0.2-0.3-0.4c-0.1-0.2-0.1-0.4-0.1-0.6c0-0.3-0.1-0.7-0.1-1.1s0-1,0-1.5v-2.2v-0.1
		c0,0,0.1,0,0.2,0h2.2h0.2c0.1,0,0.2,0.1,0.2,0.1l0.4,0.4l0.6,0.7l0.7,0.9c0.2,0.3,0.5,0.6,0.8,0.9c0.5,0.5,0.9,1,1.3,1.4
		c0.3,0.4,0.7,0.7,1.1,1c0.3,0.3,0.7,0.5,1.1,0.7c0.2,0.1,0.4,0.2,0.7,0.2c0.3,0.1,0.6,0.1,0.8,0.1c0.3,0,0.7,0,1.2,0H64
		c0.1,0,0.2,0,0.3,0c0.1,0,0.1-0.1,0.1-0.2s0-0.1-0.1-0.1s-0.1,0-0.2,0h-0.3h-0.4L63,74.6c-0.2-0.1-0.4-0.1-0.6-0.2
		c-0.3-0.1-0.6-0.3-0.8-0.4c-0.4-0.2-0.7-0.5-1-0.7c-0.7-0.6-1.5-1.4-2.4-2.3s-1.9-2-3-3.1c0.7-0.5,1.4-1,2-1.6c0.4-0.4,0.8-1,1-1.5
		s0.3-1,0.3-1.5c0-0.3,0-0.7-0.2-1c-0.2-0.6-0.6-1.1-1-1.5c-0.2-0.2-0.4-0.3-0.6-0.4c-0.5-0.2-0.9-0.4-1.5-0.6
		c-0.5-0.1-1-0.2-1.6-0.3c-0.5,0-1.1-0.1-1.6-0.1h-0.8h-1h-1h-1.3h-0.8h-1h-1c-0.1,0-0.3,0-0.4,0c-0.1,0-0.1,0.1-0.1,0.2
		c0,0.1,0,0.1,0.1,0.2c0.1,0,0.2,0,0.3,0h0.5c0.1,0,0.3,0,0.4,0c0.2,0,0.4,0.1,0.6,0.2c0.1,0.1,0.3,0.2,0.3,0.4
		C47,60.5,47,60.8,47,61v0.4c0,0.1,0,0.3,0,0.5s0,0.5,0,0.8V69L47,69z M50,60.7c0-0.1,0-0.1,0-0.2c0-0.1,0.1-0.1,0.2-0.1
		c0.2,0,0.4-0.1,0.5-0.1h0.8c0.3,0,0.7,0,1,0.1s0.7,0.2,1,0.4s0.7,0.4,0.9,0.7c0.3,0.3,0.5,0.7,0.7,1.1c0.2,0.5,0.3,1,0.3,1.5
		c0,0.5-0.1,1-0.2,1.5c-0.1,0.4-0.3,0.7-0.5,1s-0.4,0.5-0.7,0.6c-0.1,0.1-0.3,0.2-0.4,0.2c-0.2,0.1-0.4,0.1-0.5,0.1
		c-0.2,0-0.5,0-0.8,0h-0.7c-0.2,0-0.5,0-0.7-0.1c-0.2,0-0.4-0.1-0.6-0.1c-0.1,0-0.1-0.1-0.2-0.1c0-0.1,0-0.1,0-0.2L50,60.7z"/>
	<path class="st0" d="M29.7,69v1.9c0,0.6,0,1.1,0,1.5s0,0.8-0.1,1.1c0,0.2-0.1,0.5-0.2,0.7s-0.3,0.3-0.5,0.3h-0.4
		c-0.2,0-0.3,0-0.5,0c-0.1,0-0.2,0-0.3,0c-0.1,0-0.1,0.1-0.1,0.1c0,0.1,0,0.1,0.1,0.2s0.2,0.1,0.3,0.1h0.8h0.9h0.8h0.6h1h1.4h1.6
		c0.1,0,0.2,0,0.3,0s0.1-0.1,0.1-0.2s0-0.1-0.1-0.1s-0.2,0-0.3,0h-0.4h-0.5h-0.4c-0.2,0-0.4-0.1-0.6-0.2c-0.1-0.1-0.2-0.2-0.3-0.3
		c-0.1-0.2-0.1-0.3-0.1-0.5c0-0.3,0-0.7-0.1-1.1s0-1,0-1.6v-8.4c0-0.3,0-0.5,0-0.8s0-0.4,0-0.5s0-0.3,0-0.4c0-0.3,0.1-0.6,0.2-0.8
		c0.2-0.2,0.4-0.3,0.7-0.3H34h0.4c0.1,0,0.2,0,0.3,0s0.2,0,0.2-0.1s0-0.1,0-0.2c0-0.1,0-0.1-0.2-0.1c-0.1,0-0.3,0-0.4,0h-0.8h-0.9
		H32h-1.3h-0.9h-0.9h-0.8c-0.2,0-0.3,0-0.5,0c-0.1,0-0.1,0.1-0.1,0.1c0,0.1,0,0.1,0.1,0.2c0.1,0,0.2,0,0.3,0h0.5
		c0.1,0,0.3,0,0.4,0.1c0.2,0,0.5,0.2,0.6,0.3c0.1,0.2,0.2,0.5,0.2,0.8v0.4c0,0.1,0,0.3,0,0.5L29.7,69L29.7,69z"/>
	<path class="st0" d="M9.5,74.1l0.4,0.8c0.1,0.1,0.2,0.3,0.3,0.4s0.2,0.1,0.3,0.1s0.2,0,0.3-0.1s0.2-0.3,0.3-0.5s0.3-0.5,0.5-0.9
		l0.8-1.4l1.1-2.2c0.4-0.8,0.9-1.8,1.5-2.8c0.3-0.5,0.5-1,0.7-1.4l0.6-1.2l0.6-1l0.5-1c0.2-0.3,0.4-0.7,0.6-1.1
		c0.2-0.3,0.4-0.7,0.6-1c0.1-0.2,0.3-0.4,0.4-0.6c0.1-0.1,0.2-0.2,0.4-0.3c0.1-0.1,0.3-0.1,0.5-0.2c0.1,0,0.3-0.1,0.4-0.1h0.3
		c0.1,0,0.2,0,0.3,0c0.1,0,0.1-0.1,0.1-0.2c0-0.1,0-0.1-0.1-0.2c-0.1,0-0.3,0-0.4,0h-0.6h-0.7h-0.6h-0.4c-0.1,0-0.3,0-0.5,0h-0.9
		h-1.2c-0.2,0-0.4,0-0.5,0s-0.2,0.1-0.2,0.2c0,0.1,0.1,0.1,0.1,0.1c0.1,0,0.2,0,0.3,0h0.5c0.2,0,0.3,0,0.5,0.1
		c0.1,0,0.2,0.1,0.2,0.2c0.1,0.1,0.1,0.1,0.1,0.2c0,0.1,0,0.2-0.1,0.4c0,0.1-0.1,0.3-0.2,0.4l-0.4,0.9c-0.2,0.4-0.4,0.8-0.6,1.4
		s-0.5,1.1-0.8,1.7l-0.9,1.8l-0.9,1.8L11.9,70c-0.2,0.5-0.4,0.9-0.6,1.2h-0.1l-4.3-9.5c-0.2-0.4-0.3-0.7-0.4-1
		c-0.1-0.2-0.1-0.4-0.2-0.6c0-0.1,0-0.2,0.1-0.3c0-0.1,0.1-0.1,0.2-0.2c0.1-0.1,0.3-0.1,0.4-0.1c0.2,0,0.4,0,0.6,0
		c0.1,0,0.2,0,0.3,0c0.1,0,0.2-0.1,0.2-0.2c0,0,0,0,0-0.1S8,59.1,7.9,59c-0.1,0-0.3,0-0.4,0H6.2H5.1c-0.3,0-0.6,0-0.8,0s-0.7,0-1,0
		H2H0.7c-0.2,0-0.3,0-0.5,0C0.1,59,0,59.1,0,59.2c0,0.1,0,0.1,0.1,0.1s0.2,0,0.2,0h0.4c0.2,0,0.4,0,0.6,0.1C1.5,59.8,1.8,59.9,2,60
		s0.4,0.3,0.6,0.5C2.9,60.7,3,61,3.2,61.3L9.5,74.1z"/>
	<path class="st0" d="M164.7,69c0,0.6,0,1.2,0,1.8s0,1.1,0,1.5s0,0.8-0.1,1.1c0,0.2-0.1,0.4-0.1,0.6c0,0.1-0.1,0.3-0.2,0.4
		c-0.1,0.1-0.2,0.2-0.4,0.2h-0.4c-0.2,0-0.3,0-0.5,0c-0.1,0-0.2,0-0.3,0s-0.1,0.1-0.1,0.1c0,0.1,0,0.1,0.1,0.2c0.1,0,0.2,0,0.4,0
		h0.8h0.9h0.8h0.6c0.4,0,0.8,0,1.2,0s0.9,0,1.4,0h1.9h2.5c0.3,0,0.6,0,0.7,0c0.1,0,0.3-0.1,0.4-0.1c0.1-0.1,0.2-0.2,0.2-0.4
		c0-0.2,0.1-0.3,0.1-0.5s0.1-0.4,0.1-0.7s0.1-0.5,0.1-0.7s0-0.4,0-0.5s0-0.2,0-0.3c0-0.1-0.1-0.1-0.2-0.1c-0.1,0-0.1,0-0.2,0.1
		c0,0.1-0.1,0.2-0.1,0.2c-0.1,0.4-0.2,0.7-0.4,1c-0.2,0.2-0.5,0.4-0.8,0.5c-0.2,0.1-0.5,0.2-0.8,0.2s-0.6,0.1-0.8,0.1h-0.8
		c-0.5,0-1,0-1.6-0.1c-0.3,0-0.6-0.1-0.9-0.3c-0.2-0.1-0.4-0.3-0.4-0.5c-0.1-0.3-0.1-0.6-0.1-0.9c0-0.1,0-0.3,0-0.5v-1.2
		c0-0.3,0-0.5,0-0.7v-2.2c0,0,0-0.1,0-0.2h0.1h3.1h0.5c0.3,0,0.5,0.1,0.8,0.2c0.2,0.1,0.3,0.2,0.4,0.3c0.1,0.1,0.2,0.2,0.3,0.3
		c0,0.1,0.1,0.3,0.1,0.4s0,0.2,0,0.3c0,0,0,0.1,0.1,0.1s0.1,0,0.2,0c0.1,0,0.1,0,0.1-0.1c0,0,0.1-0.1,0.1-0.2s0-0.1,0-0.2
		c0,0,0-0.1,0-0.2s0-0.2,0-0.4s0-0.3,0-0.4s0-0.3,0-0.4c0-0.3,0.1-0.6,0.1-0.8s0-0.4,0.1-0.5c0-0.1,0-0.1,0-0.2c0,0,0-0.1-0.1-0.1
		h-0.1c-0.1,0-0.1,0-0.2,0.1c-0.1,0.1-0.2,0.1-0.2,0.2c-0.1,0.1-0.3,0.2-0.5,0.2c-0.2,0.1-0.5,0.1-0.7,0.1h-0.6h-0.9H168
		c-0.1,0-0.1,0-0.1-0.1s0-0.1,0-0.2v-5.2c0-0.1,0-0.1,0-0.2h0.1h0.5h0.8h0.9h0.8h0.5c0.3,0,0.6,0.1,0.9,0.2c0.2,0,0.4,0.1,0.5,0.2
		c0.1,0.1,0.2,0.2,0.2,0.3s0.1,0.2,0.1,0.3s0,0.2,0,0.3s0,0.1,0,0.2c0,0.1,0,0.2,0.1,0.2c0,0,0.1,0.1,0.2,0.1c0.1,0,0.1,0,0.2-0.1
		c0,0,0.1-0.1,0.1-0.2c0-0.1,0-0.2,0-0.3s0-0.3,0-0.4s0-0.3,0-0.4s0-0.2,0-0.3c0-0.3,0.1-0.6,0.1-0.7s0.1-0.3,0.1-0.4
		c0-0.1,0-0.1,0-0.2v-0.1l-0.1-0.1h-0.2h-0.2l-0.4,0.1l-0.6,0.1h-7h-0.9h-2c-0.1,0-0.3,0-0.4,0c-0.1,0-0.1,0.1-0.1,0.2
		c0,0.1,0,0.1,0.1,0.2c0.1,0,0.2,0,0.3,0h0.6h0.4c0.2,0,0.4,0.1,0.6,0.2c0.1,0.1,0.3,0.2,0.3,0.4c0.1,0.2,0.1,0.4,0.1,0.6
		c0,0.1,0,0.3,0,0.4s0,0.3,0,0.5v0.8c0,0.3,0,0.7,0,1.1V69H164.7z"/>
	<path class="st0" d="M147.3,69v1.9c0,0.6,0,1.1,0,1.5s0,0.7-0.1,1.1c0,0.2-0.1,0.5-0.2,0.7c-0.1,0.2-0.3,0.3-0.5,0.3h-0.4
		c-0.2,0-0.3,0-0.5,0c-0.1,0-0.2,0-0.3,0s-0.1,0.1-0.1,0.1c0,0.1,0,0.1,0.1,0.2c0.1,0,0.2,0,0.4,0h0.8h0.9h0.8h0.6h1h1.4h1.6
		c0.1,0,0.2,0,0.3,0s0.1-0.1,0.1-0.2s0-0.1-0.1-0.1s-0.2,0-0.3,0h-0.4H152h-0.4c-0.2,0-0.4-0.1-0.6-0.2c-0.1-0.1-0.2-0.2-0.3-0.3
		c-0.1-0.2-0.1-0.3-0.1-0.5c0-0.4-0.1-0.8-0.1-1.1c0-0.5,0-1,0-1.6v-8.2c0-0.3,0-0.5,0-0.8s0-0.4,0-0.5V61c0-0.3,0.1-0.6,0.2-0.8
		c0.2-0.2,0.4-0.3,0.7-0.3h0.4h0.4c0.1,0,0.2,0,0.3,0s0.1-0.1,0.1-0.2c0-0.1-0.1-0.1-0.1-0.1c-0.1,0-0.3,0-0.4,0h-0.8h-0.9h-0.8
		h-1.3h-0.9h-0.9h-0.8c-0.1,0-0.3,0-0.4,0c-0.1,0-0.1,0.1-0.1,0.1c0,0.1,0,0.1,0.1,0.2c0.1,0,0.2,0,0.3,0h0.5c0.2,0,0.3,0,0.4,0.1
		c0.2,0,0.5,0.2,0.6,0.3c0.2,0.2,0.2,0.5,0.2,0.8c0,0.1,0,0.3,0,0.4s0,0.3,0,0.5s0,0.5,0,0.8L147.3,69L147.3,69z"/>
	<path class="st0" d="M120.8,29.8L120.8,29.8c-1,0.6-1.2,1.3-0.2,2.3C120.2,31.3,120.3,30.4,120.8,29.8 M92.5,38.1L92.5,38.1
		c0,1.8-2.9,1.2-1.7-1.3C90.5,37.9,91.3,39.5,92.5,38.1z M97.5,33.5L97.5,33.5c0.2,2.6,0.9,5.1,2.1,7.4c-0.3,0.3-0.3,1.1-0.3,2
		c-0.1-0.5-0.4-0.9-0.7-1.3c0.1,0.8-0.1,1.6-0.5,2.3c0.3-1,0.3-2.1,0-3.1c0.1,1.2-0.1,2.3-0.7,3.4c0.4-1.9,0.3-3.8-0.1-5.6
		c0.3,1.4,0.2,2.9-0.3,4.2c0.2-0.8,0.1-1.6-0.2-2.3c0.1,0.5,0,1-0.1,1.5c0-1.7-0.2-3.3-1.3-4.3c0.7,0.3,1.4,0.2,2-0.2
		c-0.7-1.3-1.9-2.2-3.4-2.4v-0.6l0.3,0.5c0.1-0.2,0.2-0.4,0.4-0.5c0.1,0.2,0.3,0.4,0.5,0.5c-0.2-0.3-0.2-0.7-0.1-1.1
		c0.1,0.4,0.3,0.8,0.6,1.1c-0.2-0.5-0.3-1.1-0.3-1.6c0.2,0.6,0.5,1.1,1,1.4l0.1-0.7c0,0.4,0.2,0.8,0.4,1.2
		C97,34.6,97.2,34,97.5,33.5L97.5,33.5z M107.5,41.9L107.5,41.9c0.2,0.8-0.4,1.5-1.2,2c0.5,0.1,1.1,0,1.8-0.9
		c-0.3,0.8-0.8,1.6-3.2,1.8c1.7,1,5-0.2,4.1-2.2C108.7,41.8,108.2,41.5,107.5,41.9L107.5,41.9z M99.3,29.4L99.3,29.4
		c-2,4.4-0.7,9,2.3,12.7C99.3,38,98.2,33.8,99.3,29.4L99.3,29.4z M108.7,11.8L108.7,11.8c-1.9-0.2-3.7-0.1-4.8,2.2
		C105,12.6,106.8,11.7,108.7,11.8L108.7,11.8z M113,12.1L113,12.1c-1.7,0.3-3.3-0.1-4.2-1.9C110,11.1,111.4,11.8,113,12.1L113,12.1z
		 M120.7,7.8L120.7,7.8c-2.1,4.1-8.9,6.2-11.6,0.9C112.3,12.5,116.2,12.1,120.7,7.8L120.7,7.8z M141.7,24.1L141.7,24.1
		c2.1-0.4,2.2,3-0.3,3.8C143.1,27,143.9,24.6,141.7,24.1L141.7,24.1z M131.8,17.4L131.8,17.4c-0.4,0.6-1.9,1.6-3.8-1.4
		C129,17.1,130.4,17.6,131.8,17.4L131.8,17.4z M136.1,26L136.1,26c-2.8-1.2-5.2-3.3-6.5-6.1c0.2,1.1,0.7,2.1,1.3,3
		c-0.8-0.8-1.5-1.6-2-2.6c-0.1,0.8,0.2,2.2,2.6,3.4c0.2,0.5,0.6,0.9,1.1,1.1l-0.2-0.6C133.4,25.2,134.7,25.8,136.1,26z M130.8,26.7
		L130.8,26.7c-0.3-0.6-0.8-0.9-1.4-1C130.2,25,130.9,25.5,130.8,26.7z M126.1,20.5L126.1,20.5c1.5,1.9,1.1,5.5-1.7,5.7
		C126.2,25,127.1,23.2,126.1,20.5z M110.9,23.5L110.9,23.5c4.6-3.6,11,0.7,8.1,3.9c1.7-1,1.1-3.9-1-4.9c2,0.8,3.9,4.4,0.6,6.1
		c2.3-0.8,2.7-2.8,1.2-5.2l0.6,0.8c-1-3.4-8.6-3.6-11.2-0.1c2.6-2.7,6.6-3.5,10-1.9c1.7,0.9,2.4,4,1.5,5.7c-0.6,1.1-1.9,1.6-3,1
		c-0.2-0.1-0.3-0.2-0.4-0.3c1.6-0.4,1.8-2.3,0-3.1c0.7-0.2,1.4,0.3,1.6,1C119.6,23.4,115.3,21.4,110.9,23.5L110.9,23.5z M112.3,26.2
		L112.3,26.2c0.3-2.3-3-1.7-3.8-0.4C109.7,24.8,111,24.9,112.3,26.2L112.3,26.2z M113.3,29.6L113.3,29.6c1.3,0.7,0.2,2.4-0.7,1.9
		c0.6-0.1,1.1-0.6,1-1.2C113.5,30,113.4,29.8,113.3,29.6L113.3,29.6z M115,28.4L115,28.4c0.1-2.5,2.3-2.5,2.5-0.6
		c0.5-0.3,0.6-0.9,0.4-1.4c-0.1-0.2-0.4-0.4-0.6-0.5C116.3,25.7,114.6,26.1,115,28.4L115,28.4z M108,38.4L108,38.4
		c-1.9-2.9-2.3-7.5,1.8-9.7c1.5-0.6,3.1-0.5,4.5,0.1c-0.4-1.4,0.4-3,1.8-3.4c0.3-0.1,0.5-0.1,0.8-0.1c-0.5-1.9-2.5-2.4-5.2-1.3
		c1.5,0.7,1.8,2.1,0.6,3c-1.2-2.3-3.7-1.7-5.7,1.2c-2.3,3.3-2.5,7.6-0.3,11c1.9-0.7,3.6-0.6,4.6,2.2c0.2-0.9,0.3-1.8,0.1-2.7
		c-0.1,0.3-0.2,0.7-0.6,0.8c0-0.6-0.4-1.1-0.9-1.3C109.2,38.5,109.1,38.9,108,38.4L108,38.4z M108.9,40.3L108.9,40.3
		c-0.6-0.6-1.6-0.5-2.1,0.1c-0.5,0.5-0.5,1.3-0.1,1.9C106.7,40.8,107.4,40,108.9,40.3L108.9,40.3z M105.6,39.5L105.6,39.5
		c-2.5,0.4-4.6,0.1-5-2.3c1.8-0.6-0.2-2.2-0.4-0.5C100,38,101.4,40.7,105.6,39.5L105.6,39.5z M100.5,31.2L100.5,31.2
		c1.7,0.4,0.9-2.2-0.2-1c-1.7,1.9,0.2,4.2,3.4,4.4C101.5,34,99.5,32.6,100.5,31.2L100.5,31.2z M103.6,24L103.6,24
		c-0.5,1.6,1.8,1,0.8-0.4c-0.6-0.9-2.5-0.3-2.9,2.1c-0.2,1.8,0.9,3.5,2.7,4.1c-1.6-1.1-2.5-2.5-2.3-4C102,25,102.8,23.7,103.6,24z
		 M108.8,19.1L108.8,19.1c1-2.2-4.2-0.2-1.5,4.8c-1.8-2.3-1.4-5.8,1.4-6.5C111.2,16.7,110.6,21,108.8,19.1L108.8,19.1z M115.4,17.6
		L115.4,17.6c2.3-1.2-1.8-3.5-2.9,0.3c-0.2,0.9-0.2,1.8,0,2.6c-0.4-0.8-0.6-1.8-0.4-2.7c0.4-1.5,1.9-3.2,3.8-2.4
		C117.7,15.9,117.4,18.5,115.4,17.6L115.4,17.6z M120,17.7L120,17.7c-1.2-6.8-14.6-5.4-19.6,6.9c0.2-1.5,0.7-2.9,1.6-4.1
		c-1.1,1.2-2,2.7-2.6,4.2c1-0.6,0.5,1.4,0.1,3.2C103.3,15.4,116,10.2,120,17.7L120,17.7z M110.3,13.6L110.3,13.6
		c4.5-1.8,9.2-1.4,12.4,3.6c-0.2-1.4-1.1-2.6-2.3-3.3c2.1,1.1,3,2.5,3,4.3C124.4,13,115.9,10.4,110.3,13.6L110.3,13.6z M127.5,17.4
		L127.5,17.4c0.6-2.4-6.3-7.1-10.9-5.4c6.1,0.5,9.7,3.4,11.4,8.4c0.3-1.9-1.3-3.9-3.1-6C125.7,14.8,126.6,15.3,127.5,17.4
		L127.5,17.4z M117.2,11.4c4-0.3,7.9,1.1,10.7,3.9c1.1,1.3,2.8,1.9,4.5,1.6c0,2-1.9,2.2-3.4,1c0.6,1.9,1.9,2.1,3.4,1.7
		c-0.3,0.6-0.8,1-1.5,1c1.6,3.2,4,3.9,6.7,3.6c0.3,0.8,0,1.2-0.9,1.4c0.4,0.1,0.8,0.3,1.1,0.6c-0.4,0.1-0.8,0.2-1.1,0.5
		c2.1,1.2,4.4,0.7,4.9-0.9c-1.5-0.5-1.3-1.8-0.4-2.2c2.9-1.2,3.3,3.3,0.8,4.1c-2.7,1.2-6.1-0.2-10-3.2V25c-0.2-0.4-0.5-0.6-0.9-0.4
		c0.4,1,0.3,2.1-0.5,2.9c0.2-0.3,0-0.8-0.3-1c-1.6-0.6-1.6-2.2-1.9-3.6c-0.3,2.6-4.4,5.2-6.1,2.7c1.9,1.4,3.4-0.8,3.7-2
		c0.3-2.1-0.5-4.2-2-5.6c0.1,1.2-0.3,2.5-1.2,3.4c0.1-0.4,0-0.8-0.3-1c-1-0.5-1.2-1.1-0.7-1.7c1.1-1.2-0.5-1.5-0.4,0
		c-0.3,2.7-2.8,2.5-4.1,1c4.4-1.4,0.3-6.2-4.7-4.7c-4,1.1-7.5,3.8-9.6,7.4c-2.2,3.5-4,8-3.7,11.9c0.4,6,3.9,10.7,7.2,8.7
		c-0.9-0.7-1.2-2-0.5-2.9l0.1-0.1c-5.2-9.1,2.5-20.1,10.1-19c4.7,0.9,6.8,4.1,5.2,8.4c-0.6,0.9-0.8,2-0.6,3.1
		c-1,0.1-1.6-0.5-1.5-1.8c-2.1,1-3.5,0.3-4.7-1.2c1.3,2.5-2.6,4.6-2.6,1.5c1.6,0,0.8-1.1,0.2-1.4c-1.5-0.4-3.1,0.2-4,1.5
		c-1.4,1.9-0.4,3.6,1.3,3.4c-0.2,1-1.3,1.6-2.2,0.3c-0.2,1.4,0.3,2.9,1.2,4c0.4-0.1,0.7-0.7,1-1.3c0.3,0.4,0.6,0.8,1,1.1
		c0.5-1.5,1.2-1.9,2.1-1.5c-2.2,1-0.4,4-1.2,5.7c-2,4-7.2,4.7-11.6-1.2c0.7,1.3,0.8,2.9,0.2,4.3c-0.3-0.5-0.7-0.9-1.2-1.1
		c0.2,1.8-0.3,3-1.7,3.4c0.1-1.1-0.3-2.3-1-3.2c-0.1,1.5-0.9,3-2.2,4c-2.5,1.9-5.9,1.5-6.5-0.8s2.8-1.3,1,0.3
		c1.1,1.9,3.4,0.8,4.5-0.5c1.8-2,2.5-6.2,2-8.5c-0.4-2-2.2-3-2.8-2.2c1.8,0.6,0,3.2-1.2,2C88.4,37,92,34.5,93.7,35
		c-0.1-0.5-0.3-1-0.7-1.4c0.5-0.3,1-0.3,1.5-0.2c-0.3-0.8-0.2-1.7,0.3-2.4c0.8,0.4,1.4,1.2,1.5,2.2c0.4-0.2,0.6-0.5,0.7-1
		c0.3,0.2,0.6,0.5,0.6,0.9c-0.2-1-0.2-2,0-3c0.4-1.5,0.9-4.4-1-4.5c0.1,1.5-1.6,1.1-0.9-0.3c0.3-0.6,1-0.8,1.6-0.5l0.1,0.1l-0.2-0.7
		c0.8-0.2,1.4,0.2,1.7,1c2.8-7.3,7.4-11.1,13-12.8c-4.7-0.4-7.9,0.4-7.8,3.6c-2-3,1.4-5,5-4.8c-0.8-0.2-1.4-0.8-1.6-1.6
		c-0.1-0.3-0.3-0.6-0.7-0.7c0.6-0.3,1.3-0.3,1.9-0.1C108.2,8,107.9,7,108,6.1c0.8-0.2,1.7,0.2,2.1,0.9c-0.2-0.7,0.2-1.5,0.9-1.8
		c-1.1,7,11.4,4,9.1-1c-2.5,1.8-1-2.2,0.5-0.2C122.2,6.1,122,9,117.2,11.4L117.2,11.4z"/>
	<path class="st0" d="M54.1,29.8L54.1,29.8c1,0.6,1.2,1.3,0.2,2.3C54.7,31.3,54.6,30.4,54.1,29.8 M82.3,38.1L82.3,38.1
		c0,1.8,2.9,1.2,1.7-1.3C84.3,37.9,83.6,39.5,82.3,38.1z M77.3,33.5L77.3,33.5c-0.2,2.6-0.9,5.1-2.1,7.4c0.3,0.3,0.3,1.1,0.3,2
		c0.1-0.5,0.4-0.9,0.7-1.3c-0.1,0.8,0.1,1.6,0.5,2.3c-0.3-1-0.3-2.1,0-3.1c-0.1,1.2,0.1,2.3,0.7,3.4c-0.4-1.9-0.3-3.8,0.1-5.6
		c-0.3,1.4-0.2,2.8,0.3,4.2c-0.2-0.8-0.1-1.6,0.2-2.3c-0.1,0.5,0,1,0.1,1.5c0-1.7,0.2-3.3,1.3-4.3c-0.7,0.3-1.4,0.2-2-0.2
		c0.7-1.3,2-2.1,3.4-2.4v-0.6L80.5,35c-0.1-0.2-0.2-0.4-0.4-0.5c-0.1,0.2-0.3,0.4-0.5,0.5c0.2-0.3,0.2-0.7,0.1-1.1
		c-0.1,0.4-0.4,0.8-0.7,1.1c0.2-0.5,0.3-1.1,0.3-1.6c-0.2,0.6-0.5,1.1-1,1.4L78.1,34c0,0.4-0.2,0.8-0.4,1.2
		C77.8,34.6,77.6,34,77.3,33.5L77.3,33.5z M67.3,41.9L67.3,41.9c-0.2,0.8,0.4,1.5,1.2,2c-0.5,0.1-1.1,0-1.8-0.9
		c0.2,0.8,0.8,1.6,3.2,1.8c-1.7,1-5-0.2-4.1-2.2C66.1,41.8,66.6,41.5,67.3,41.9L67.3,41.9z M75.6,29.4L75.6,29.4
		c2,4.4,0.7,9-2.3,12.7C75.6,38,76.7,33.8,75.6,29.4L75.6,29.4z M66.1,11.8L66.1,11.8c1.9-0.2,3.7-0.1,4.8,2.2
		C69.8,12.6,68,11.7,66.1,11.8z M61.8,12.1L61.8,12.1c1.7,0.3,3.3-0.1,4.2-1.9C64.9,11.1,63.4,11.8,61.8,12.1z M54.1,7.8L54.1,7.8
		c2.1,4.1,8.9,6.2,11.6,0.9C62.5,12.5,58.6,12.1,54.1,7.8z M33.1,24.1L33.1,24.1c-2.1-0.4-2.2,3,0.3,3.8
		C31.7,27,30.9,24.6,33.1,24.1L33.1,24.1z M43,17.4L43,17.4c0.3,0.6,1.8,1.6,3.8-1.4C45.8,17.1,44.4,17.6,43,17.4z M38.7,26L38.7,26
		c2.8-1.2,5.2-3.3,6.5-6.1c-0.2,1.1-0.7,2.1-1.3,3c0.8-0.8,1.5-1.6,2-2.6c0,0.8-0.2,2.2-2.6,3.4c-0.2,0.5-0.6,0.9-1.1,1.1l0.2-0.6
		C41.4,25.2,40.1,25.8,38.7,26z M44,26.7L44,26.7c0.3-0.6,0.8-0.9,1.4-1C44.6,25,43.9,25.5,44,26.7L44,26.7z M48.7,20.5L48.7,20.5
		c-1.5,1.9-1.1,5.5,1.7,5.7C48.6,25,47.7,23.2,48.7,20.5z M63.9,23.5L63.9,23.5c-4.6-3.6-11,0.7-8.1,3.9c-1.7-1-1.1-3.9,1-4.9
		c-2,0.8-3.9,4.4-0.6,6.1c-2.3-0.8-2.7-2.8-1.2-5.2l-0.6,0.8c1-3.4,8.6-3.6,11.2-0.1c-2.6-2.7-6.6-3.5-10.1-1.9
		c-1.7,0.9-2.4,4-1.5,5.7c0.6,1.1,1.9,1.6,3,1c0.2-0.1,0.3-0.2,0.4-0.3c-1.6-0.4-1.8-2.3,0-3.1c-0.7-0.2-1.4,0.3-1.6,1
		C55.2,23.4,59.5,21.4,63.9,23.5L63.9,23.5z M62.5,26.2L62.5,26.2c-0.4-2.3,3-1.7,3.8-0.4C65.1,24.8,63.8,24.9,62.5,26.2z
		 M61.6,29.6L61.6,29.6c-1.3,0.7-0.2,2.4,0.7,1.9c-0.6-0.1-1.1-0.7-1-1.3C61.3,30,61.4,29.8,61.6,29.6z M59.8,28.4L59.8,28.4
		c-0.1-2.5-2.3-2.5-2.5-0.6c-0.5-0.3-0.6-0.9-0.3-1.4c0.1-0.2,0.3-0.4,0.6-0.4C58.5,25.7,60.2,26.1,59.8,28.4z M66.8,38.4L66.8,38.4
		c1.9-2.9,2.3-7.5-1.8-9.7c-1.5-0.6-3.1-0.5-4.5,0.1c0.4-1.4-0.4-3-1.8-3.4c-0.3-0.1-0.6-0.1-0.8-0.1c0.5-1.9,2.5-2.4,5.2-1.3
		c-1.5,0.7-1.8,2.1-0.6,3c1.2-2.3,3.7-1.7,5.7,1.2c2.3,3.3,2.5,7.6,0.3,11c-1.9-0.7-3.6-0.6-4.5,2.2c-0.2-0.9-0.3-1.8-0.1-2.7
		c0.1,0.3,0.2,0.7,0.6,0.8c0-0.6,0.4-1.1,0.9-1.3C65.6,38.5,65.7,38.9,66.8,38.4L66.8,38.4z M66,40.3L66,40.3
		c0.6-0.6,1.6-0.5,2.1,0.1c0.5,0.5,0.5,1.3,0.1,1.9C68.1,40.8,67.4,40,66,40.3z M69.3,39.5L69.3,39.5c2.5,0.4,4.6,0.1,5-2.3
		c-1.8-0.6,0.2-2.2,0.4-0.5C74.8,38,73.4,40.7,69.3,39.5L69.3,39.5z M74.4,31.2L74.4,31.2c-1.7,0.4-0.9-2.2,0.2-1
		c1.7,1.9-0.2,4.2-3.4,4.4C73.3,34,75.3,32.6,74.4,31.2L74.4,31.2z M71.2,24L71.2,24c0.5,1.6-1.8,1-0.8-0.4c0.6-0.9,2.5-0.3,2.9,2.1
		c0.2,1.8-0.9,3.5-2.7,4.1c1.6-1.1,2.5-2.5,2.3-4C72.8,25,72,23.7,71.2,24z M66,19.1L66,19.1c-1-2.2,4.2-0.1,1.5,4.9
		c1.8-2.3,1.4-5.8-1.4-6.5C63.6,16.7,64.2,21,66,19.1z M59.4,17.6L59.4,17.6c-2.3-1.2,1.8-3.5,2.9,0.3c0.2,0.9,0.2,1.8,0,2.6
		c0.4-0.8,0.6-1.8,0.4-2.7c-0.4-1.5-1.9-3.2-3.8-2.4C57.1,15.9,57.5,18.5,59.4,17.6z M54.8,17.7L54.8,17.7
		c1.2-6.8,14.6-5.4,19.6,6.9c-0.2-1.5-0.7-2.8-1.6-4.1c1.1,1.2,2,2.7,2.5,4.2c-1-0.6-0.5,1.4-0.1,3.2C71.5,15.4,58.8,10.2,54.8,17.7
		z M64.5,13.6L64.5,13.6c-4.5-1.8-9.2-1.4-12.5,3.6c0.2-1.4,1.1-2.6,2.3-3.3c-2.1,1.1-3,2.5-3,4.3C50.5,13,58.9,10.4,64.5,13.6z
		 M47.3,17.4L47.3,17.4c-0.6-2.4,6.3-7.1,10.9-5.4c-6.1,0.5-9.8,3.4-11.4,8.4c-0.3-1.9,1.3-3.9,3.1-6C49.1,14.8,48.2,15.3,47.3,17.4
		z M57.6,11.4c-4-0.3-7.9,1.1-10.7,3.9c-1.1,1.3-2.8,2-4.5,1.7c0,2,1.9,2.2,3.5,1c-0.7,1.9-2,2.1-3.5,1.7c0.3,0.6,0.8,1,1.5,1
		c-1.6,3.2-4,3.9-6.7,3.6c-0.3,0.8,0,1.2,0.9,1.4c-0.4,0.1-0.8,0.3-1,0.6c0.4,0.1,0.8,0.2,1.1,0.5c-2.1,1.2-4.4,0.7-4.9-0.9
		c1.5-0.5,1.3-1.8,0.4-2.2c-2.9-1.2-3.3,3.3-0.8,4.1c2.7,1.2,6.2-0.2,10-3.2l0.1,0.3c0.2-0.4,0.5-0.6,0.8-0.4
		c-0.4,1-0.3,2.1,0.5,2.9c-0.2-0.3,0-0.8,0.3-1c1.6-0.6,1.6-2.2,1.9-3.6c0.3,2.6,4.4,5.2,6.1,2.7c-1.9,1.4-3.4-0.8-3.7-2
		c-0.3-2.1,0.5-4.2,2-5.6c-0.1,1.3,0.3,2.5,1.2,3.4c-0.1-0.4,0-0.8,0.3-1c1-0.5,1.2-1.1,0.7-1.7c-1.1-1.2,0.5-1.5,0.4,0
		c0.3,2.7,2.9,2.5,4.1,1c-4.4-1.4-0.3-6.2,4.7-4.7c4,1.1,7.4,3.7,9.5,7.3c2.2,3.5,4,8,3.8,11.9c-0.4,6-3.9,10.7-7.2,8.7
		c0.9-0.7,1.2-1.9,0.5-2.9l-0.1-0.1c5.2-9.1-2.5-20.1-10.1-19c-4.7,0.9-6.8,4.1-5.2,8.4c0.6,0.9,0.8,2,0.6,3.1
		c1,0.1,1.6-0.5,1.5-1.8c2.1,1,3.5,0.3,4.7-1.2c-1.3,2.5,2.6,4.6,2.6,1.5c-1.6,0-0.8-1.1-0.2-1.4c1.5-0.4,3.1,0.2,4,1.5
		c1.4,1.9,0.4,3.6-1.3,3.4c0.2,1,1.3,1.6,2.2,0.3c0.2,1.4-0.3,2.9-1.2,4c-0.4-0.1-0.7-0.7-1-1.3c-0.3,0.4-0.6,0.8-1,1.1
		c-0.5-1.5-1.2-1.9-2.1-1.5c2.2,1,0.4,4,1.2,5.7c2,4,7.2,4.7,11.6-1.2c-0.7,1.4-0.7,3,0,4.3c0.2-0.5,0.7-0.9,1.2-1.1
		c-0.2,1.8,0.3,3,1.7,3.4c-0.1-1.1,0.3-2.3,1-3.2c0.1,1.6,0.9,3.1,2.1,4.1c2.5,1.9,5.9,1.5,6.5-0.8s-2.8-1.3-1,0.3
		c-1.1,1.9-3.4,0.8-4.5-0.5c-1.8-2-2.5-6.2-2-8.5c0.4-2,2.2-3,2.8-2.2c-1.8,0.6-0.1,3.2,1.2,2c2.6-2.3-1.1-4.8-2.7-4.3
		c0.1-0.6,0.3-1.1,0.8-1.4c-0.5-0.3-1-0.3-1.5-0.2c0.4-0.8,0.2-1.7-0.3-2.4c-0.8,0.4-1.4,1.2-1.5,2.2c-0.4-0.2-0.6-0.5-0.7-1
		c-0.3,0.2-0.6,0.5-0.6,0.9c0.2-1,0.2-2-0.1-3c-0.4-1.5-0.9-4.4,1-4.5c-0.1,1.5,1.6,1.1,0.9-0.3c-0.3-0.6-1-0.8-1.6-0.5l-0.1,0.1
		l0.2-0.7c-0.8-0.2-1.3,0.2-1.7,1c-2.8-7.3-7.4-11.1-13-12.8c4.7-0.4,7.9,0.4,7.8,3.6c2-3-1.4-5-5-4.8c0.8-0.2,1.4-0.8,1.6-1.6
		C67.3,9.3,67.5,9,67.9,9c-0.6-0.3-1.3-0.3-1.9-0.1c0.5-0.8,0.8-1.8,0.7-2.7C65.8,6,65,6.3,64.6,7c0.2-0.8-0.3-1.5-1-1.8
		c1.1,7-11.4,4-9.1-1C57.2,6,55.7,2,54.2,4C52.6,6.1,52.8,9,57.6,11.4L57.6,11.4z"/>
	<path class="st0" d="M90.6,0h0.7l2.3,4l2.3-4H99l-5.4,9.3L89.4,2L90.6,0L90.6,0z M104,0l-8.3,14.3l-2.1,3.6l-2.1-3.6l-4.7-8.2
		l1.6-2.5l3.3,5.7l1.9,3.3l1.9-3.3l5.1-8.9c0.1-0.1,0.1-0.3,0.1-0.4C100.7,0,104,0,104,0z"/>
	<path class="st1" d="M75.8,0h3.1l2.3,4l2.3-4h3.1l-5.4,9.3L75.8,0z M91.5,0l-8.2,14.3l-2.1,3.6l-2.1-3.6L70.9,0h3.2
		c0,0.1,0,0.3,0.1,0.4l5.1,8.9l1.9,3.3l1.9-3.3l5.1-8.9c0.1-0.1,0.1-0.3,0.1-0.4C88.3,0,91.5,0,91.5,0z"/>
	<path class="st0" d="M169,89.9h-1v-8.1h1.2l2.7,4c0.6,0.8,1.1,1.7,1.5,2.6c-0.1-0.7-0.1-1.8-0.1-3.3v-3.3h1v8.1h-1.1l-2.6-4.1
		c-0.7-1-1.2-1.9-1.6-2.7c0,0.8,0.1,1.9,0.1,3.3L169,89.9z M165.9,85.6v3.9c-0.8,0.3-1.7,0.5-2.6,0.5c-1.2,0.1-2.3-0.3-3.2-1.2
		c-1.5-1.7-1.5-4.3,0.1-5.9c0.9-0.8,2.1-1.2,3.3-1.2c0.7,0,1.5,0.1,2.1,0.4l-0.3,0.9c-0.6-0.3-1.2-0.4-1.9-0.4
		c-0.9,0-1.8,0.3-2.4,0.9c-0.6,0.6-0.9,1.5-0.9,2.3c-0.1,1.7,1.2,3.1,2.8,3.2c0.1,0,0.3,0,0.4,0c0.5,0,1,0,1.5-0.2v-2.3h-1.7v-0.9
		L165.9,85.6z M156.1,81.8h1.1v8.1h-1.1V81.8z M149.1,89.5l0.3-0.9c0.6,0.4,1.3,0.5,2,0.5c0.4,0,0.9-0.1,1.2-0.4
		c0.3-0.2,0.5-0.6,0.5-1c0-0.3-0.1-0.7-0.4-0.9c-0.4-0.3-0.8-0.5-1.2-0.6c-0.6-0.2-1.2-0.5-1.7-1c-0.4-0.4-0.6-0.8-0.5-1.3
		c0-0.6,0.3-1.2,0.8-1.6c0.6-0.4,1.3-0.7,2-0.6c0.7,0,1.3,0.1,1.9,0.4l-0.3,0.9c-0.5-0.3-1-0.4-1.6-0.4c-0.4,0-0.8,0.1-1.1,0.3
		c-0.5,0.4-0.5,1.1-0.2,1.6l0.1,0.1c0.4,0.3,0.8,0.5,1.3,0.7c0.6,0.2,1.2,0.5,1.6,1c0.8,0.9,0.6,2.3-0.3,3.1
		c-0.6,0.5-1.4,0.7-2.2,0.7c-0.4,0-0.8-0.1-1.2-0.2C149.8,89.7,149.4,89.6,149.1,89.5L149.1,89.5z M147.3,85.2v0.9h-3.2V89h3.6v0.9
		H143v-8.1h4.6v0.9h-3.5v2.5L147.3,85.2z M135.3,82.7V89c0.4,0,0.7,0,1.1,0c1,0.1,1.9-0.3,2.6-0.9c0.7-0.7,1-1.6,0.9-2.5
		c0-0.9-0.3-1.7-0.9-2.3c-0.7-0.6-1.6-0.9-2.5-0.8C136.2,82.5,135.8,82.6,135.3,82.7L135.3,82.7z M134.2,89.9v-8
		c0.8-0.1,1.6-0.2,2.4-0.2c1.3-0.1,2.5,0.3,3.5,1.1c0.8,0.7,1.2,1.8,1.1,2.8c0.1,1.2-0.3,2.3-1.2,3.2c-1,0.9-2.4,1.3-3.7,1.2
		C135.6,89.9,134.9,89.9,134.2,89.9L134.2,89.9z M125.3,86c-0.6,0.3-1,0.9-1,1.6c0,0.4,0.2,0.9,0.5,1.2c0.3,0.3,0.8,0.5,1.2,0.4
		c0.6,0,1.2-0.2,1.7-0.7C127,87.8,126.2,87,125.3,86z M125.8,85c0.4-0.2,0.7-0.5,1-0.8c0.2-0.2,0.3-0.5,0.3-0.8s-0.1-0.5-0.2-0.7
		c-0.2-0.2-0.4-0.3-0.7-0.3c-0.3,0-0.6,0.1-0.8,0.3c-0.2,0.2-0.3,0.5-0.3,0.8C125.2,84.1,125.4,84.6,125.8,85z M130.3,89.9H129
		l-0.8-0.8c-0.7,0.6-1.5,0.9-2.4,0.9c-0.7,0-1.3-0.2-1.9-0.7c-0.5-0.4-0.7-1-0.7-1.6c0-1,0.7-2,1.6-2.4c-0.4-0.5-0.7-1-0.7-1.7
		c0-1.1,0.9-2,2-2h0.1c0.5,0,1,0.2,1.3,0.5s0.5,0.8,0.5,1.3c0,0.4-0.2,0.9-0.4,1.2c-0.4,0.4-0.9,0.8-1.4,1c1.1,1.3,1.8,2,2,2.2
		c0.4-0.7,0.7-1.5,0.8-2.3h1c-0.1,1.1-0.5,2.1-1.2,3L130.3,89.9z M119.1,85.6v3.9c-0.8,0.3-1.7,0.5-2.6,0.5
		c-1.2,0.1-2.3-0.3-3.2-1.2c-1.5-1.7-1.5-4.3,0.1-5.9c0.9-0.8,2.1-1.2,3.3-1.2c0.7,0,1.5,0.1,2.1,0.4l-0.3,0.9
		c-0.6-0.3-1.2-0.4-1.9-0.4c-0.9,0-1.8,0.3-2.4,0.9s-0.9,1.5-0.9,2.3c-0.1,1.7,1.2,3.1,2.8,3.2c0.1,0,0.3,0,0.4,0c0.5,0,1,0,1.5-0.2
		v-2.3h-1.7v-0.9C116.3,85.6,119.1,85.6,119.1,85.6z M105.1,89.9h-1v-8.1h1.2l2.7,4c0.6,0.8,1.1,1.7,1.5,2.6
		c-0.1-0.7-0.1-1.8-0.1-3.3v-3.3h1v8.1h-1.2l-2.6-4.1c-0.7-1-1.2-1.9-1.6-2.7c0,0.8,0.1,1.9,0.1,3.3V89.9z M100.7,81.8h1.1v8.1h-1.1
		V81.8z M93.1,89.9H92v-8.1h1.2l2.7,4c0.6,0.8,1.1,1.7,1.5,2.6c-0.1-0.7-0.1-1.8-0.1-3.3v-3.3h1v8.1h-1.1l-2.6-4.1
		c-0.7-1-1.2-1.9-1.6-2.7c0,0.8,0.1,1.9,0.1,3.3V89.9z M84.5,89.9h-1v-8.1h1.2l2.7,4c0.6,0.8,1.1,1.7,1.5,2.6
		c-0.1-0.7-0.1-1.8-0.1-3.3v-3.3h1v8.1h-1.2L86,85.8c-0.7-1-1.2-1.9-1.6-2.7c0,0.8,0.1,1.9,0.1,3.3V89.9z M77,86.5h2.5
		c-0.7-2-1.2-3.3-1.3-3.8C78,83.4,77.6,84.7,77,86.5z M79.7,87.3h-3l-0.8,2.5h-1.2l2.8-8.1h1.4l2.9,8.1h-1.2L79.7,87.3z M69.1,89.9
		v-8.1h1.1V89h3.6v0.9H69.1z M63.1,82.7v3.1c0.3,0.1,0.6,0.1,0.9,0.1c0.5,0,1.1-0.1,1.5-0.4s0.6-0.8,0.5-1.2c0-0.4-0.2-0.9-0.5-1.1
		c-0.4-0.3-0.9-0.4-1.4-0.4C63.8,82.6,63.5,82.6,63.1,82.7z M62,89.9v-8c0.7-0.1,1.4-0.2,2.1-0.2c0.8-0.1,1.6,0.2,2.3,0.7
		c0.5,0.4,0.8,1.1,0.8,1.7c0,0.7-0.3,1.4-0.9,1.9c-0.7,0.5-1.5,0.7-2.3,0.7c-0.3,0-0.6,0-0.9-0.1v3.2L62,89.9z M57.4,85.6v3.9
		c-0.8,0.3-1.7,0.5-2.6,0.5c-1.2,0.1-2.3-0.3-3.2-1.2c-1.5-1.7-1.5-4.3,0.1-5.9c0.9-0.8,2.1-1.2,3.3-1.2c0.7,0,1.5,0.1,2.1,0.4
		L56.9,83c-0.6-0.3-1.2-0.4-1.9-0.4c-0.9,0-1.8,0.3-2.4,0.9c-0.6,0.6-1,1.5-0.9,2.3c0,0.9,0.3,1.7,0.9,2.3c0.6,0.6,1.5,0.9,2.3,0.9
		c0.5,0,1,0,1.5-0.2v-2.3h-1.7v-0.9C54.7,85.6,57.4,85.6,57.4,85.6z M43.4,89.9h-1.1v-8.1h1.2l2.7,4c0.6,0.8,1.1,1.7,1.5,2.6
		c-0.1-0.7-0.1-1.8-0.1-3.3v-3.3h1v8.1h-1.1l-2.6-4.1c-0.7-1-1.2-1.9-1.6-2.7c0,0.8,0.1,1.9,0.1,3.3L43.4,89.9z M39,81.8h1v8.1h-1.1
		L39,81.8z M31.3,82.7V89c0.4,0,0.7,0,1.1,0c0.9,0.1,1.8-0.2,2.6-0.8c0.6-0.7,1-1.6,0.9-2.5c0-0.9-0.3-1.7-0.9-2.3
		c-0.7-0.6-1.6-0.9-2.5-0.8C32.1,82.6,31.7,82.6,31.3,82.7L31.3,82.7z M30.2,89.9v-8c0.8-0.1,1.6-0.2,2.3-0.2
		c1.2-0.1,2.5,0.3,3.4,1.1c0.8,0.7,1.2,1.8,1.1,2.8c0.1,1.2-0.4,2.3-1.2,3.2c-1,0.9-2.4,1.3-3.7,1.2C31.5,89.9,30.8,89.9,30.2,89.9
		L30.2,89.9z M22.6,82.7V89c0.4,0,0.7,0,1.1,0c1,0.1,1.9-0.3,2.6-0.9c0.6-0.7,1-1.6,0.9-2.5c0-0.9-0.3-1.7-0.9-2.3
		c-0.7-0.6-1.6-0.9-2.5-0.8C23.4,82.5,23,82.6,22.6,82.7L22.6,82.7z M21.5,89.9v-8c0.8-0.1,1.6-0.2,2.4-0.2c1.3-0.1,2.5,0.3,3.5,1.1
		c0.8,0.7,1.2,1.8,1.1,2.8c0.1,1.2-0.4,2.3-1.2,3.2c-1,0.9-2.4,1.3-3.7,1.2C22.8,89.9,22.1,89.9,21.5,89.9L21.5,89.9z M19.3,85.2
		v0.9H16V89h3.6v0.9h-4.7v-8.1h4.6v0.9H16v2.5L19.3,85.2z M6.6,89.9H5.4l-2.1-8.1h1.2C5.4,85.7,5.9,88,6,88.6l0,0
		C6.1,88,6.3,87,6.7,85.8l1.1-4.1H9l1,4.1c0.3,1.2,0.5,2.1,0.6,2.7l0,0c0.1-0.8,0.4-1.7,0.6-2.8l1.1-4.1h1.1L11,89.7H9.9l-1-4.2
		c-0.3-1.2-0.5-2.1-0.5-2.6l0,0c-0.2,0.9-0.4,1.8-0.6,2.6L6.6,89.9z"/>
</g>
</svg>
